<svg width="89" height="91.7" viewBox="0 0 89 91.7" xmlns="http://www.w3.org/2000/svg">
  <g id="svgGroup" stroke-linecap="round" fill-rule="evenodd" font-size="9pt" stroke="#c1121f"
    stroke-width="0.25mm" fill="#c1121f" style="stroke:#c1121f;stroke-width:0.25mm;fill:#c1121f">
    <path
      d="M 45.8 70.8 L 48.5 68.4 A 308.259 308.259 0 0 1 47.09 64.883 Q 45.378 60.526 44.661 58.2 A 24.588 24.588 0 0 1 44.4 57.3 A 0.16 0.16 0 0 0 44.302 57.151 Q 44.224 57.111 44.085 57.103 A 1.347 1.347 0 0 0 44 57.1 Q 43.1 57.6 39.5 61 A 504.025 504.025 0 0 1 33.444 65.913 Q 25.212 72.476 20.798 75.275 A 46.528 46.528 0 0 1 20.6 75.4 A 0.932 0.932 0 0 1 20.506 75.396 Q 20.142 75.358 20.5 75 L 22 73.3 Q 31.2 63.8 38 54.3 A 245.974 245.974 0 0 0 40.239 50.635 Q 43.226 45.643 44.387 43.014 A 16.429 16.429 0 0 0 44.8 42 Q 42.7 43.7 40.6 45.35 Q 38.5 47 36.6 48.4 A 115210.167 115210.167 0 0 0 34.975 49.695 Q 30.404 53.339 29.427 54.119 A 292.733 292.733 0 0 0 29.2 54.3 A 101.884 101.884 0 0 1 28.193 55.055 Q 26.188 56.538 25.7 56.7 A 0.601 0.601 0 0 1 25.633 56.697 Q 25.566 56.689 25.533 56.665 A 0.076 0.076 0 0 1 25.5 56.6 A 0.358 0.358 0 0 1 25.534 56.481 Q 25.686 56.122 26.5 54.9 A 227.768 227.768 0 0 0 36.237 41.429 A 193.943 193.943 0 0 0 40.1 35.4 A 18.665 18.665 0 0 1 40.264 35.004 Q 40.338 34.83 40.422 34.642 A 32.564 32.564 0 0 1 40.6 34.25 A 8.229 8.229 0 0 1 40.765 33.912 Q 40.97 33.516 41.15 33.3 A 1.05 1.05 0 0 1 41.311 33.142 Q 41.494 33 41.7 33 Q 42.103 33 43.353 33.716 A 26.797 26.797 0 0 1 44 34.1 A 24.168 24.168 0 0 1 44.694 34.523 Q 45.785 35.211 47.65 36.49 A 219.552 219.552 0 0 1 48.1 36.8 L 49.6 37.8 A 7.255 7.255 0 0 1 49.229 38.196 Q 48.584 38.841 47.322 39.898 A 69.284 69.284 0 0 1 47.2 40 Q 45.9 40.9 45.3 41.4 L 47.6 42.8 L 51.3 44.9 Q 53.2 46.2 53.2 46.4 A 51.472 51.472 0 0 0 51.198 48.325 Q 50.15 49.391 49.3 50.4 A 1.34 1.34 0 0 0 49.564 50.494 Q 49.842 50.566 50.267 50.589 A 8.046 8.046 0 0 0 50.7 50.6 Q 55.9 50.5 61.2 50 Q 64.85 46.062 65.271 45.814 A 0.161 0.161 0 0 1 65.3 45.8 A 97.257 97.257 0 0 1 68.551 48.355 Q 71.492 50.777 73.291 52.743 A 24.725 24.725 0 0 1 73.7 53.2 Q 73.7 53.567 72.941 54.188 A 7.467 7.467 0 0 1 72.8 54.3 A 8.45 8.45 0 0 1 70.637 55.881 A 8.055 8.055 0 0 1 70.6 55.9 L 65.7 60.9 Q 65 61.8 64.15 62.6 Q 63.3 63.4 62.6 64.2 Q 59.625 67.175 58.518 68.577 A 12.681 12.681 0 0 0 58.5 68.6 L 63.2 70.6 Q 76.1 75.8 87.4 79 Q 88.629 79.384 88.914 79.768 A 0.388 0.388 0 0 1 89 80 Q 89 80.538 88.116 80.835 A 3.919 3.919 0 0 1 87.9 80.9 A 29.661 29.661 0 0 0 84.417 82.362 Q 82.699 83.206 80.82 84.347 A 66.05 66.05 0 0 0 77.8 86.3 L 75.2 88.5 A 101.675 101.675 0 0 1 70.349 86.39 A 86.186 86.186 0 0 1 68.3 85.4 A 88.446 88.446 0 0 1 58.86 79.049 A 105.232 105.232 0 0 1 54.6 75.6 L 52.4 73.3 L 50.1 74.8 Q 40 81.1 27 86.5 A 369.025 369.025 0 0 1 20.77 88.731 Q 17.679 89.805 14.909 90.697 A 198.347 198.347 0 0 1 11.7 91.7 Q 11.5 91.7 11.5 91.5 A 69.362 69.362 0 0 1 14.615 89.813 A 88.54 88.54 0 0 1 17.3 88.5 A 199.898 199.898 0 0 0 31.88 80.427 Q 39.531 75.741 45.8 70.8 Z M 0.9 90.5 L 0.3 90.5 L 0.3 28.2 Q 0 20.8 0 13.5 L 0.1 5.3 A 13.814 13.814 0 0 1 0.864 5.611 Q 2.647 6.381 7.453 8.708 A 837.29 837.29 0 0 1 9.7 9.8 Q 12.6 9.2 14.1 9.2 Q 15.9 9.1 17.5 8.7 A 6.291 6.291 0 0 0 17.943 8.686 Q 18.666 8.634 18.9 8.4 L 22.2 4.5 L 22.7 4.2 L 29.6 9.2 L 31.1 10.6 L 29.4 11.8 Q 25.607 15.051 20.1 21.484 A 199.661 199.661 0 0 0 18.9 22.9 L 15.6 27.1 L 17.5 28.5 L 19.3 30.1 Q 24.6 35.8 27 40.8 L 27.6 43 L 27.7 48.5 L 26.8 50.2 Q 24.7 53.3 22 55.7 Q 19.549 57.17 17.966 57.84 A 11.802 11.802 0 0 1 17.3 58.1 Q 17.119 57.829 16.939 57.313 A 7.894 7.894 0 0 1 16.9 57.2 Q 16 54.4 12.8 51.7 L 11.5 50.7 A 161.043 161.043 0 0 0 13.238 50.408 Q 16.084 49.912 17.1 49.6 L 17.9 49.2 L 18.8 47.4 L 18.6 44.7 Q 18.518 41.659 17.423 37.876 A 43.924 43.924 0 0 0 16.9 36.2 A 97.638 97.638 0 0 0 14.618 31.31 A 76.214 76.214 0 0 0 12.8 27.9 L 13.8 24.9 A 891.354 891.354 0 0 0 15.438 20.776 Q 17.881 14.58 18.8 11.9 L 19.1 11 L 15.4 11.4 A 78.645 78.645 0 0 0 13.127 11.658 Q 10.042 12.058 8.6 12.564 A 6.873 6.873 0 0 0 8.5 12.6 L 8.3 12.8 Q 8.3 35.616 8.417 49.814 A 1593.672 1593.672 0 0 0 8.5 57.7 Q 8.7 69.6 8.7 80.1 L 8.3 81.4 Q 6.3 86.2 3.6 89.1 A 22.676 22.676 0 0 1 2.821 89.611 Q 1.525 90.422 0.9 90.5 Z M 29.6 32.9 L 28.1 31.8 Q 27.413 31.112 26.43 30.351 A 26.65 26.65 0 0 0 26.1 30.1 L 25.7 29.5 A 283.402 283.402 0 0 1 32.258 29.181 Q 35.16 29.072 38.346 29.002 A 510.266 510.266 0 0 1 45 28.9 L 47 28.9 L 46.8 18.4 A 126.389 126.389 0 0 0 43.169 18.449 Q 39.444 18.556 36.9 18.9 Q 35.5 19.3 32.8 19.5 L 30.2 16.8 L 46.6 15.5 Q 46.447 7.691 46.411 2.754 A 381.544 381.544 0 0 1 46.4 0 L 56.7 2.2 Q 56.9 2.2 59.1 3 L 59.1 3.6 Q 59.003 4.855 57.788 7.79 A 53.296 53.296 0 0 1 57.7 8 L 56.7 9.8 L 56.5 15.1 L 57.5 15.1 A 121.661 121.661 0 0 0 59.888 15.031 Q 62.376 14.933 64.052 14.742 A 23.78 23.78 0 0 0 65.1 14.6 Q 66.095 13.298 67.97 11.293 A 111.46 111.46 0 0 1 69.2 10 A 0.31 0.31 0 0 1 69.314 10.035 Q 69.583 10.16 70.338 10.725 A 35.764 35.764 0 0 1 70.7 11 Q 72.002 11.995 72.951 12.873 A 19.4 19.4 0 0 1 73.5 13.4 L 75.6 15.1 L 75.6 15.9 A 2.154 2.154 0 0 1 75.537 16.431 A 1.826 1.826 0 0 1 75.4 16.8 Q 74.431 17.091 73.181 17.194 A 15.138 15.138 0 0 1 73.1 17.2 Q 69.655 17.43 67.265 17.542 A 137.221 137.221 0 0 1 65.9 17.6 Q 61.7 17.8 59.9 17.8 A 138.376 138.376 0 0 1 58.816 17.883 Q 57.475 17.979 56.771 17.996 A 11.34 11.34 0 0 1 56.5 18 L 56.7 28.6 A 2687.77 2687.77 0 0 0 61.009 28.423 Q 69.606 28.062 71.8 27.9 L 72.6 27.7 L 76.7 23.7 L 77.8 22.7 Q 80.3 24.5 83.6 27.1 L 85.3 28.6 L 85.3 29.3 Q 85.3 30.122 84.286 30.403 A 3.604 3.604 0 0 1 83.8 30.5 Q 80.899 30.781 69.505 30.886 A 1103.546 1103.546 0 0 1 67.9 30.9 Q 50.1 31.3 34.9 32.6 Q 32 32.9 29.6 32.9 Z M 74.7 50 L 74.1 49.8 L 72.4 47.7 Q 66.9 41 60.8 35.4 L 59.1 33.9 A 56.078 56.078 0 0 1 62.49 34.494 Q 66.152 35.24 71.134 36.628 A 216.533 216.533 0 0 1 72.8 37.1 A 26.136 26.136 0 0 1 75.614 38.248 Q 78.623 39.702 80.1 41.6 A 8.283 8.283 0 0 1 80.442 42.699 Q 80.58 43.296 80.598 43.844 A 4.935 4.935 0 0 1 80.6 44 A 6.606 6.606 0 0 1 79.147 48.141 A 8.172 8.172 0 0 1 79.1 48.2 Q 77.938 49.671 76.537 50.003 A 3.619 3.619 0 0 1 75.7 50.1 A 5.962 5.962 0 0 1 75.286 50.087 Q 74.953 50.063 74.7 50 Z M 58.3 52.9 L 46.8 53.4 A 55.769 55.769 0 0 0 46.491 53.886 Q 45.881 54.856 45.8 55.1 L 45.5 55.7 L 46.2 56.9 A 73.399 73.399 0 0 0 48.033 59.483 Q 49.793 61.844 51.235 63.282 A 16.115 16.115 0 0 0 52 64 L 54.2 61.1 Q 58.4 55.4 59.7 53 A 0.184 0.184 0 0 0 59.62 52.966 Q 59.405 52.912 58.662 52.902 A 27.23 27.23 0 0 0 58.3 52.9 Z"
      id="0" vector-effect="non-scaling-stroke" />
  </g>
</svg>