<svg width="93.9" height="69.7" viewBox="0 0 93.9 69.7" xmlns="http://www.w3.org/2000/svg"><g id="svgGroup" stroke-linecap="round" fill-rule="evenodd" font-size="9pt" stroke="#000" stroke-width="0.25mm" fill="#000" style="stroke:#000;stroke-width:0.25mm;fill:#000"><path d="M 3 69.7 L 0 65.2 Q 5.802 64.924 18.388 64.478 A 4807.215 4807.215 0 0 1 20.6 64.4 Q 41.9 63.6 68.1 63 L 75.5 62.8 Q 77.1 61.8 78.9 60.4 Q 81.494 58.611 83.208 57.462 A 186.051 186.051 0 0 1 83.6 57.2 A 1.068 1.068 0 0 1 83.971 57.277 Q 84.505 57.477 85.3 58.2 Q 87.827 59.884 90.763 62.331 A 99.514 99.514 0 0 1 92.6 63.9 A 18.625 18.625 0 0 1 93.042 64.356 Q 93.9 65.275 93.9 65.6 L 93.3 66.1 L 92.7 66.5 L 86.5 66.3 A 161.865 161.865 0 0 0 84.569 66.256 Q 81.403 66.201 76.256 66.2 A 995.807 995.807 0 0 0 76 66.2 Q 61.219 66.2 42.94 66.862 A 1422.171 1422.171 0 0 0 25.6 67.6 Q 14.958 68.442 7.833 69.226 A 249.119 249.119 0 0 0 3.8 69.7 L 3 69.7 Z M 13.3 11.7 L 11.3 9.5 L 10.3 8.3 Q 17.4 7.9 44.9 6.8 A 467.098 467.098 0 0 0 48.194 6.669 Q 53.875 6.425 64 5.9 L 69.9 0.9 L 71.2 0 Q 75.786 4.001 78.754 6.859 A 111.242 111.242 0 0 1 78.9 7 L 79.8 7.9 L 79.8 9.3 L 68.3 9.3 A 1369.542 1369.542 0 0 0 58.725 9.569 Q 49.392 9.865 42.293 10.241 A 408.899 408.899 0 0 0 36.3 10.6 A 24.191 24.191 0 0 0 35.501 10.614 Q 34.794 10.638 33.95 10.7 Q 32.6 10.8 30.7 10.9 Q 22.508 11.666 17.422 12.314 A 141.686 141.686 0 0 0 14.6 12.7 A 0.91 0.91 0 0 1 14.385 12.609 Q 14.056 12.426 13.524 11.919 A 13.233 13.233 0 0 1 13.3 11.7 Z M 18.9 37.9 L 17 35.8 L 16.6 35.4 Q 25.331 34.85 32.219 34.536 A 516.544 516.544 0 0 1 38.1 34.3 L 55.4 33.5 L 59.5 33.3 Q 63.447 30.605 65.448 29.485 A 23.272 23.272 0 0 1 65.6 29.4 L 67.3 28.2 L 67.7 28.4 L 74.4 34.8 L 74.8 35.6 L 74.4 36.4 L 63 36.4 Q 48.4 36.5 36.1 37.5 Q 28.7 38.2 22.5 39.2 Q 21.3 39.6 20.5 39.6 A 0.26 0.26 0 0 0 20.446 39.483 Q 20.213 39.135 18.976 37.971 A 63.728 63.728 0 0 0 18.9 37.9 Z" id="0" vector-effect="non-scaling-stroke"/></g></svg>