<svg width="96.28" height="88.933" viewBox="0 0 96.28 88.933" xmlns="http://www.w3.org/2000/svg"><g id="svgGroup" stroke-linecap="round" fill-rule="evenodd" font-size="9pt" stroke="#000" stroke-width="0.25mm" fill="#000" style="stroke:#000;stroke-width:0.25mm;fill:#000"><path d="M 12.18 37.3 L 11.08 36.7 L 5.18 31.7 L 5.58 31.5 A 292.675 292.675 0 0 0 10.136 31.194 Q 17.43 30.65 27.48 29.6 A 109.902 109.902 0 0 1 30.251 29.221 Q 31.682 29.045 32.912 28.94 A 43.973 43.973 0 0 1 35.18 28.8 L 35.28 24.6 A 190.046 190.046 0 0 0 35.324 22.612 Q 35.362 20.37 35.375 17.329 A 738.682 738.682 0 0 0 35.38 14.4 A 638.739 638.739 0 0 0 35.374 11.469 Q 35.355 7.4 35.28 5.3 A 9.19 9.19 0 0 0 35.117 4.177 Q 34.814 2.761 34.08 2.1 L 33.68 1.5 L 34.08 0.9 A 3.334 3.334 0 0 1 34.846 0.319 A 2.716 2.716 0 0 1 35.88 0 A 48.369 48.369 0 0 1 44.961 2.958 A 41.431 41.431 0 0 1 49.48 5.3 Q 49.879 5.898 49.333 6.994 A 4.933 4.933 0 0 1 49.33 7 Q 48.857 7.945 47.978 8.964 A 14.803 14.803 0 0 1 47.68 9.3 L 46.58 10.5 L 45.38 24 Q 45.28 25.095 44.884 27.281 A 95.119 95.119 0 0 1 44.88 27.3 A 0.992 0.992 0 0 0 45.134 27.418 Q 45.396 27.5 45.78 27.5 Q 52.08 26.8 57.38 26 A 0.65 0.65 0 0 0 57.535 25.913 Q 57.919 25.641 58.88 24.6 A 103.681 103.681 0 0 1 60.386 22.712 Q 61.81 20.974 62.852 19.896 A 16.504 16.504 0 0 1 63.78 19 A 32.494 32.494 0 0 1 65.604 19.887 Q 67.618 20.938 70.209 22.566 A 106.062 106.062 0 0 1 70.58 22.8 Q 71.98 23.6 72.98 24.5 Q 73.68 25.2 73.68 25.6 A 6.402 6.402 0 0 1 73.208 26.523 Q 72.63 27.478 71.563 28.721 A 34.39 34.39 0 0 1 70.78 29.6 Q 70.08 30.1 68.78 31.9 L 68.38 34.7 A 829.915 829.915 0 0 0 66.261 59 A 955.094 955.094 0 0 0 65.68 67.5 L 65.68 68.6 L 66.28 69.3 Q 66.955 70.071 67.722 70.378 A 2.917 2.917 0 0 0 67.78 70.4 Q 68.864 70.761 70.764 70.878 A 26.324 26.324 0 0 0 71.18 70.9 A 142.856 142.856 0 0 0 76.764 70.452 Q 79.295 70.196 81.483 69.863 A 64.847 64.847 0 0 0 84.68 69.3 A 20.778 20.778 0 0 0 86.503 67.18 Q 88.646 64.359 91.08 59.7 A 44.255 44.255 0 0 1 91.325 59.183 Q 91.765 58.271 91.942 58.044 A 0.483 0.483 0 0 1 91.98 58 A 2.955 2.955 0 0 1 92.068 58.347 Q 92.19 58.956 92.264 60.137 A 36.226 36.226 0 0 1 92.28 60.4 A 48.701 48.701 0 0 0 93.04 65.177 Q 93.583 67.722 94.38 69.9 Q 95.605 73.168 96.097 74.633 A 24.411 24.411 0 0 1 96.28 75.2 A 6.701 6.701 0 0 1 94.58 78.1 A 27.663 27.663 0 0 1 90.867 79.329 Q 86.835 80.392 80.76 81.105 A 159.618 159.618 0 0 1 74.58 81.7 Q 68.58 81.7 64.88 81.1 A 13.971 13.971 0 0 1 62.437 79.659 A 18.501 18.501 0 0 1 60.58 78.1 A 33.468 33.468 0 0 1 57.343 71.879 A 30.7 30.7 0 0 1 56.98 70.9 L 56.88 65.4 Q 57.08 55.9 58.08 38.9 Q 58.355 35.05 58.535 32.004 A 329.747 329.747 0 0 0 58.68 29.4 L 58.28 29.4 L 44.88 31.3 L 44.28 34.1 A 163.762 163.762 0 0 1 38.046 55.532 A 143.052 143.052 0 0 1 35.18 62.7 L 33.68 65.5 L 31.18 68.3 Q 26.18 73.3 20.38 78.1 A 152.384 152.384 0 0 1 13.388 82.357 Q 8.561 85.131 2.88 88 A 22.136 22.136 0 0 1 2.14 88.354 Q 1.255 88.756 0.68 88.9 Q 0.28 89 0.08 88.8 Q -0.107 88.613 0.144 88.426 A 0.838 0.838 0 0 1 0.18 88.4 Q 0.267 88.313 0.584 88.187 A 5.446 5.446 0 0 1 0.68 88.15 Q 1.08 88 1.88 87.4 Q 13.376 80.403 20.777 72.92 A 63.413 63.413 0 0 0 23.58 69.9 Q 30.143 58.275 33.629 42.08 A 141.516 141.516 0 0 0 34.08 39.9 A 102.543 102.543 0 0 0 34.386 37.744 Q 34.679 35.496 34.754 33.966 A 19.873 19.873 0 0 0 34.78 33 A 52.023 52.023 0 0 0 32.736 33.304 Q 27.648 34.141 14.499 36.825 A 1971.533 1971.533 0 0 0 12.18 37.3 Z" id="0" vector-effect="non-scaling-stroke"/></g></svg>