<svg width="88.67" height="92.7" viewBox="0 0 88.67 92.7" xmlns="http://www.w3.org/2000/svg"><g id="svgGroup" stroke-linecap="round" fill-rule="evenodd" font-size="9pt" stroke="#000" stroke-width="0.25mm" fill="#000" style="stroke:#000;stroke-width:0.25mm;fill:#000"><path d="M 2.17 62.1 L 1.57 61.4 Q -0.33 58.3 0.07 57.3 Q 0.27 57 0.82 56.35 Q 1.241 55.852 1.926 55.032 A 646.175 646.175 0 0 0 2.37 54.5 Q 5.9 50.617 7.717 46.889 A 22.393 22.393 0 0 0 8.17 45.9 A 37.42 37.42 0 0 0 8.684 44.174 Q 9.125 42.541 9.24 41.379 A 8.8 8.8 0 0 0 9.27 41 A 0.728 0.728 0 0 1 9.279 40.893 Q 9.313 40.669 9.47 40.2 L 9.97 40 L 11.17 41.2 A 9.114 9.114 0 0 1 11.925 42.146 Q 12.92 43.556 14.07 46 L 16.37 45.9 Q 41.87 45.3 67.77 44.2 A 296.593 296.593 0 0 1 68.889 44.132 Q 71.138 44 71.87 44 L 77.87 38.8 L 82.57 43.2 Q 86.47 46.8 87.47 48 Q 88.333 49.177 88.58 49.985 A 2.288 2.288 0 0 1 88.67 50.4 L 88.67 51.3 Q 87.97 51.4 86.97 51.5 Q 85.97 51.6 84.57 51.7 A 58.759 58.759 0 0 0 80.994 52.148 Q 79.288 52.419 77.837 52.774 A 26.705 26.705 0 0 0 75.97 53.3 A 43.836 43.836 0 0 1 71.846 54.295 A 39.624 39.624 0 0 1 71.27 54.4 L 72.47 50.2 L 73.37 47.2 A 0.098 0.098 0 0 0 73.289 47.132 Q 72.938 47 71.07 47 L 63.87 47.2 L 58.97 47.4 Q 45.67 47.9 34.52 48.3 Q 23.729 48.687 15.046 49.074 A 1590.546 1590.546 0 0 0 14.47 49.1 L 14.07 50.8 Q 13.488 52.616 12.115 54.802 A 32.917 32.917 0 0 1 10.97 56.5 A 42.599 42.599 0 0 1 8.917 58.506 Q 7.951 59.385 7.029 60.095 A 23.895 23.895 0 0 1 6.42 60.55 Q 4.733 61.766 3.569 62.028 A 2.736 2.736 0 0 1 2.97 62.1 L 2.17 62.1 Z M 4.97 18.2 L 4.07 16.5 Q 3.121 15.235 2.86 14.658 A 1.246 1.246 0 0 1 2.77 14.4 A 716.988 716.988 0 0 1 14.754 14.039 Q 22.963 13.856 32.47 13.8 L 38.27 13.8 L 38.27 10.4 Q 38.194 6.825 37.77 4.117 A 27.34 27.34 0 0 0 37.47 2.5 A 5.252 5.252 0 0 1 37.295 2.169 Q 37.129 1.824 37.085 1.571 A 1.006 1.006 0 0 1 37.07 1.4 A 0.142 0.142 0 0 1 37.125 1.305 Q 37.327 1.114 38.27 0.8 A 10.029 10.029 0 0 1 39.309 0.488 Q 39.847 0.356 40.456 0.26 A 17.317 17.317 0 0 1 40.87 0.2 L 42.17 0 L 43.17 0.2 Q 46.701 0.963 48.866 1.636 A 30.947 30.947 0 0 1 49.07 1.7 A 23.351 23.351 0 0 1 49.792 1.932 Q 51.37 2.469 51.37 2.8 A 16.391 16.391 0 0 0 50.938 3.55 Q 50.464 4.422 49.858 5.714 A 83.975 83.975 0 0 0 49.27 7 A 88.266 88.266 0 0 0 48.891 9.406 Q 48.538 11.881 48.47 13.6 L 68.67 13.3 L 70.17 13.3 L 76.17 8.4 Q 80.57 12 83.97 15.4 A 4.756 4.756 0 0 1 83.112 15.527 Q 79.029 15.91 56.79 16.349 A 4000.286 4000.286 0 0 1 48.67 16.5 Q 26.07 17 13.17 17.8 L 10.37 17.9 L 4.97 18.2 Z M 40.57 70.5 L 40.47 62.7 L 40.27 59.5 L 38.07 59.5 Q 31.87 59.6 24.27 60.3 Q 21.207 60.683 19.258 60.831 A 38.696 38.696 0 0 1 18.17 60.9 Q 15.784 57.719 15.671 57.305 A 0.234 0.234 0 0 1 15.67 57.3 Q 26.941 57.211 44.613 56.801 A 3877.929 3877.929 0 0 0 48.87 56.7 L 58.77 56.5 L 62.67 53.1 Q 63.746 52.023 64.057 51.905 A 0.32 0.32 0 0 1 64.07 51.9 Q 66.27 53.6 69.47 56.3 Q 70.101 57.09 70.359 57.63 A 2.383 2.383 0 0 1 70.47 57.9 A 1.192 1.192 0 0 1 70.524 58.026 Q 70.704 58.522 70.17 58.7 L 69.67 59.1 L 61.37 59.1 A 349.197 349.197 0 0 0 58.255 59.182 Q 52.07 59.375 50.77 59.7 L 50.77 68.8 A 305.252 305.252 0 0 1 50.741 73.161 Q 50.658 78.941 50.335 81.68 A 16.932 16.932 0 0 1 50.17 82.8 Q 49.47 86.2 46.67 88.9 Q 44.804 90.176 40.818 92.61 A 377.709 377.709 0 0 1 40.67 92.7 L 39.47 92.7 Q 38.834 92.7 38.398 92.501 A 1.565 1.565 0 0 1 38.07 92.3 A 1.148 1.148 0 0 1 37.871 92.017 Q 37.628 91.55 37.483 90.591 A 11.393 11.393 0 0 1 37.47 90.5 A 14.952 14.952 0 0 0 36.336 87.828 A 12.874 12.874 0 0 0 35.57 86.6 Q 33.27 85.4 32.07 84.7 A 0.163 0.163 0 0 1 32.118 84.596 Q 32.266 84.426 32.87 84.2 Q 33.87 83.8 34.97 83.7 A 78.599 78.599 0 0 0 36.082 83.554 Q 38.301 83.244 38.87 83 Q 39.77 82.6 40.27 81.5 A 143.496 143.496 0 0 0 40.475 77.032 Q 40.57 73.988 40.57 70.5 Z M 21.77 42.8 L 21.67 31.4 L 21.77 20.3 L 27.97 22.9 L 29.87 23.7 L 45.17 23.4 L 49.07 23.3 L 55.97 23.1 L 59.77 19.7 L 60.87 18.9 L 63.67 20.7 Q 66.62 22.175 67.733 22.973 A 6.938 6.938 0 0 1 67.77 23 L 69.07 23.9 Q 68.98 24.793 68.014 26.005 A 10.812 10.812 0 0 1 67.77 26.3 L 66.97 27.3 Q 66.695 30.522 66.609 33.039 A 63.336 63.336 0 0 0 66.57 35.2 L 66.57 37.9 L 58.97 37.9 Q 41.27 38 29.47 38.8 A 0.674 0.674 0 0 0 29.314 38.882 Q 28.995 39.097 28.37 39.8 A 7.669 7.669 0 0 1 27.526 40.981 Q 27.059 41.525 26.449 42.069 A 15.396 15.396 0 0 1 25.82 42.6 Q 24.4 43.736 23.737 43.95 A 0.889 0.889 0 0 1 23.47 44 A 0.628 0.628 0 0 1 23.274 43.965 Q 23.09 43.904 22.854 43.739 A 3.625 3.625 0 0 1 22.67 43.6 A 6.885 6.885 0 0 1 22.358 43.394 Q 21.848 43.036 21.77 42.8 Z M 41.37 35.4 L 51.57 35 L 56.17 35 Q 56.084 29.153 55.776 26.781 A 11.797 11.797 0 0 0 55.67 26.1 Q 47.07 26.1 29.67 26.3 L 29.57 29.4 L 29.27 35.8 A 700.239 700.239 0 0 1 31.744 35.717 Q 34.59 35.627 36.2 35.606 A 67.444 67.444 0 0 1 37.07 35.6 Q 39.917 35.404 41.318 35.4 A 20.213 20.213 0 0 1 41.37 35.4 Z" id="0" vector-effect="non-scaling-stroke"/></g></svg>