<svg width="98" height="91.6" viewBox="0 0 98 91.6" xmlns="http://www.w3.org/2000/svg"><g id="svgGroup" stroke-linecap="round" fill-rule="evenodd" font-size="9pt" stroke="#000" stroke-width="0.25mm" fill="#000" style="stroke:#000;stroke-width:0.25mm;fill:#000"><path d="M 92.5 90.7 L 90.6 90.1 A 78.262 78.262 0 0 1 82.661 85.798 A 69.569 69.569 0 0 1 80.8 84.6 Q 76.3 80.7 72.9 77.2 L 72 76.1 L 69.6 77.3 L 61.5 81.2 Q 57.956 82.684 55.567 83.352 A 21.764 21.764 0 0 1 54.6 83.6 Q 54 83.4 54.9 82.9 L 59.1 80.2 A 89.466 89.466 0 0 0 65.303 76.02 A 108.772 108.772 0 0 0 69.1 73.1 L 69.9 72.5 L 69.3 71.1 A 140.604 140.604 0 0 1 68.606 68.781 Q 67.846 66.164 66.899 62.617 A 531.664 531.664 0 0 1 66 59.2 A 13.937 13.937 0 0 0 65.804 57.69 A 11.401 11.401 0 0 0 65.6 56.8 A 81.287 81.287 0 0 0 64.229 56.814 Q 61.284 56.866 54.8 57.1 L 54.8 62.8 L 55.1 62.8 Q 56.003 62.718 58.252 62.165 A 95.798 95.798 0 0 0 59.3 61.9 L 63 61 L 63.3 61 Q 63.744 61 63.86 61.11 A 0.121 0.121 0 0 1 63.9 61.2 Q 63.9 61.5 63 62 L 57 65.1 L 55 66.1 L 54.7 72.9 L 54.6 75.7 L 54.1 79.7 L 51.2 84.4 A 20.806 20.806 0 0 1 48.417 86.834 A 15.72 15.72 0 0 1 45.3 88.6 L 44.7 88.6 L 44.5 87.4 A 17.544 17.544 0 0 0 43.249 85.161 Q 42.472 83.997 41.584 83.152 A 8.809 8.809 0 0 0 40.4 82.2 L 39.1 81.8 L 38.9 81.4 L 39.3 81.2 L 44.7 80.4 A 11.701 11.701 0 0 0 45.647 79.946 Q 46.102 79.7 46.468 79.44 A 5.504 5.504 0 0 0 46.9 79.1 A 91.351 91.351 0 0 0 47.223 74.009 A 117.146 117.146 0 0 0 47.3 69.7 Q 43.5 71.4 37.3 74.7 Q 35.6 75.7 34.8 75.7 A 70.667 70.667 0 0 1 33.064 71.67 A 60.118 60.118 0 0 1 32.4 69.9 L 31.8 68.5 L 47.3 64.9 L 47.7 64.7 L 47.7 57.7 Q 43.023 57.782 40.231 58.133 A 25.214 25.214 0 0 0 39.1 58.3 L 33.8 58.6 L 32.6 57.3 A 38.482 38.482 0 0 1 32.272 56.92 Q 31.401 55.898 31.238 55.533 A 0.354 0.354 0 0 1 31.2 55.4 Q 39.3 54.9 47.5 54.8 L 47.3 47.8 L 46.9 47.8 Q 40.636 48.789 36.75 48.963 A 34.799 34.799 0 0 1 35.2 49 L 44.5 45.4 A 104.844 104.844 0 0 0 49.46 42.802 Q 52.614 41.034 55.1 39.3 L 56.1 38.5 L 40.6 39.5 Q 38.1 39.7 36.7 39.7 L 34 36.1 A 843.487 843.487 0 0 0 42.241 36.062 Q 46.012 36.025 49.391 35.952 A 489.852 489.852 0 0 0 51.6 35.9 L 57.8 35.9 L 57.8 28.7 Q 55.886 28.853 54.675 28.889 A 22.954 22.954 0 0 1 54 28.9 Q 48.007 29.258 43.934 29.616 A 182.866 182.866 0 0 0 43 29.7 A 43.703 43.703 0 0 1 42.158 28.878 Q 40.791 27.503 40.4 26.8 A 211.528 211.528 0 0 1 47.506 26.405 Q 51.384 26.251 55.7 26.2 L 57.8 26.2 L 57.8 18.6 L 40.6 19.8 L 40 20 A 144.307 144.307 0 0 1 39.075 19.027 Q 37.856 17.73 37.316 17.073 A 7.996 7.996 0 0 1 37.1 16.8 L 36.7 16.2 L 50.8 16.4 L 50.7 15.6 Q 50 11.7 48.4 5.6 L 47.7 3.3 L 47.5 2.9 L 49.2 3.7 A 48.486 48.486 0 0 1 52.925 5.523 Q 54.647 6.465 56.028 7.444 A 20.678 20.678 0 0 1 58.2 9.2 L 58.9 10 L 58.9 10.9 Q 58.3 13.2 56.8 15.2 L 55.9 16.2 L 56.3 16.2 L 59.4 16.3 L 63.2 16.2 L 64.7 16.2 L 66.4 13.6 Q 71.6 4.8 72.7 0.3 A 0.666 0.666 0 0 1 72.708 0.194 Q 72.738 0.009 72.886 0 A 0.253 0.253 0 0 1 72.9 0 A 0.274 0.274 0 0 1 72.958 0.014 Q 73.229 0.098 74.673 0.685 A 246.647 246.647 0 0 1 75.2 0.9 Q 81.712 4.204 82.934 5.242 A 2.602 2.602 0 0 1 83 5.3 A 4.926 4.926 0 0 1 82.535 5.825 Q 81.269 7.105 77.338 10.199 A 242.265 242.265 0 0 1 76.7 10.7 Q 72.7 13.5 69.5 16 A 398.273 398.273 0 0 0 72.681 15.988 Q 77.254 15.952 79.3 15.8 L 80.8 15.8 L 86.3 11.5 A 97.847 97.847 0 0 1 89.028 13.455 Q 90.344 14.435 91.448 15.338 A 46.558 46.558 0 0 1 92.7 16.4 A 19.684 19.684 0 0 1 92.768 16.607 Q 92.882 16.962 92.898 17.071 A 0.209 0.209 0 0 1 92.9 17.1 A 1.191 1.191 0 0 1 92.636 17.846 A 1.636 1.636 0 0 1 92.5 18 Q 79.867 18.23 71.807 18.342 A 1847.556 1847.556 0 0 1 67.3 18.4 A 18.8 18.8 0 0 0 67.174 19.418 Q 67.007 21.065 66.877 24.107 A 237.405 237.405 0 0 0 66.8 26.1 Q 69.5 26.1 72.2 25.9 A 1183.186 1183.186 0 0 0 73.165 25.812 Q 76.565 25.5 76.3 25.5 Q 80.5 22.4 81.2 22.1 Q 82.745 23.041 84.607 24.658 A 48.737 48.737 0 0 1 86.5 26.4 Q 86.5 26.561 86.371 27.109 A 22.156 22.156 0 0 1 86.3 27.4 L 85.9 28 L 83.3 28 L 75.2 28.3 L 66.8 28.3 Q 67.047 32.091 67.362 34.524 A 41.523 41.523 0 0 0 67.5 35.5 L 83.4 35.3 Q 84.778 34.228 86.449 32.687 A 78.618 78.618 0 0 0 87.5 31.7 L 89.4 30.4 Q 90.855 31.548 93.071 33.576 A 159.291 159.291 0 0 1 94.5 34.9 A 18.901 18.901 0 0 1 94.916 35.519 Q 95.825 36.933 95.713 37.454 A 0.441 0.441 0 0 1 95.7 37.5 A 6.419 6.419 0 0 1 94.693 37.67 Q 92.258 37.94 85.198 37.989 A 487.613 487.613 0 0 1 81.8 38 L 69.9 38.3 L 69.3 38.5 L 73.6 41 A 3.739 3.739 0 0 1 73.483 41.333 Q 73.165 42.137 72.175 44.061 A 118.675 118.675 0 0 1 72 44.4 L 71.8 46.4 Q 71.8 50 72.4 53.4 L 72.4 53.9 L 85.3 53.8 A 82.072 82.072 0 0 1 86.487 52.714 Q 88.115 51.258 89.038 50.63 A 6.263 6.263 0 0 1 89.4 50.4 L 90.6 49.4 L 91.2 49.6 Q 94.6 52.2 97.2 54.8 Q 97.1 55 97 55.25 Q 96.9 55.5 96.8 55.8 L 96.4 56.4 L 87.5 56 L 82.4 55.8 Q 74.1 56.4 72.7 56.4 Q 74.097 61.989 75.893 66.283 A 51.397 51.397 0 0 0 75.9 66.3 A 77.344 77.344 0 0 0 78.439 63.769 A 92.713 92.713 0 0 0 80 62.1 Q 81.3 60.3 81.8 58.1 L 82.2 56.8 L 84.3 58.3 Q 85.463 59.284 87.186 60.828 A 262.282 262.282 0 0 1 87.6 61.2 A 25.794 25.794 0 0 1 88.058 61.635 Q 88.906 62.463 88.991 62.744 A 0.196 0.196 0 0 1 89 62.8 A 0.668 0.668 0 0 1 88.929 63.087 Q 88.794 63.372 88.4 63.7 L 85.9 65.9 Q 81.3 69.4 79.6 70.9 L 78.9 71.5 L 80.2 72.9 Q 81.231 74.103 82.853 75.306 A 24.544 24.544 0 0 0 83.4 75.7 A 135.811 135.811 0 0 0 86.756 77.917 Q 88.406 78.97 89.875 79.827 A 64.376 64.376 0 0 0 91.6 80.8 Q 92.26 80.223 93.735 78.15 A 78.339 78.339 0 0 0 94.4 77.2 A 98.118 98.118 0 0 1 95.088 76.286 Q 97.339 73.331 97.791 73.3 A 0.137 0.137 0 0 1 97.8 73.3 A 0.16 0.16 0 0 1 97.949 73.398 Q 97.989 73.476 97.998 73.615 A 1.347 1.347 0 0 1 98 73.7 L 97.6 76.3 Q 97.404 78.755 97.4 79.956 A 14.855 14.855 0 0 0 97.4 80 A 22.227 22.227 0 0 0 97.413 80.713 Q 97.438 81.512 97.517 82.577 A 80.73 80.73 0 0 0 97.6 83.6 Q 97.988 88.359 98 88.213 A 0.185 0.185 0 0 0 98 88.2 L 97.6 89 Q 96.8 89.9 95.9 90.7 L 92.5 90.7 Z M 20.4 91.6 L 20.4 90.7 L 20.3 88.6 L 20.4 85.8 Q 20.936 71.33 21.413 48.829 A 5186.872 5186.872 0 0 0 21.7 34.3 L 21.3 34.7 A 240.24 240.24 0 0 1 10.781 45.657 A 284.286 284.286 0 0 1 5.5 50.7 A 84.417 84.417 0 0 1 4.316 51.761 Q 2.082 53.722 1.378 53.976 A 0.807 0.807 0 0 1 1.3 54 Q 0.632 54.418 0.312 54.486 A 0.54 0.54 0 0 1 0.2 54.5 Q 0 54.5 0 54.3 A 0.454 0.454 0 0 1 0.018 54.186 Q 0.067 54 0.256 53.675 A 6.085 6.085 0 0 1 0.3 53.6 A 3.437 3.437 0 0 1 0.375 53.494 Q 0.703 53.043 2.103 51.252 A 578.573 578.573 0 0 1 2.3 51 Q 12.476 38.583 22.042 20.937 A 272.208 272.208 0 0 0 23.4 18.4 L 28.7 6.3 L 28.1 5.3 A 8.008 8.008 0 0 1 27.856 4.885 Q 27.182 3.645 27.7 3.3 A 0.428 0.428 0 0 0 27.824 3.268 Q 28.211 3.125 29.611 2.349 A 84.332 84.332 0 0 0 29.7 2.3 L 30.7 2.7 A 147.584 147.584 0 0 1 34.347 5.206 Q 37.569 7.497 39.8 9.4 A 0.812 0.812 0 0 1 39.758 9.641 Q 39.641 10.013 39.2 10.6 Q 39.03 10.94 37.628 12.875 A 227.795 227.795 0 0 1 37.1 13.6 Q 33.8 18.3 29.9 24.2 L 28.8 25.5 L 28.8 59.2 L 28.7 76.8 A 72.532 72.532 0 0 1 28.339 79.471 Q 27.938 82.045 27.435 83.762 A 16.144 16.144 0 0 1 27.2 84.5 A 15.459 15.459 0 0 1 24.969 88.674 A 17.939 17.939 0 0 1 24.4 89.4 A 12.434 12.434 0 0 1 23.537 90.31 Q 22.172 91.6 21.1 91.6 L 20.4 91.6 Z M 65 53.9 L 64.3 42.3 L 64.3 38.2 A 371.813 371.813 0 0 0 62.018 38.241 Q 57.494 38.338 56.6 38.5 A 0.855 0.855 0 0 0 56.719 38.761 Q 57.078 39.34 58.473 40.683 A 48.066 48.066 0 0 0 58.7 40.9 L 61.3 43.9 L 61.7 44.6 L 61.5 45 Q 61.2 45.3 59.6 45.8 A 9.921 9.921 0 0 1 58.856 45.994 Q 57.6 46.275 55.5 46.5 L 52.9 47.1 Q 52.7 47.3 53.7 47.8 A 31.249 31.249 0 0 1 54.081 48.011 Q 54.838 48.438 55 48.6 L 55.3 49 A 184.987 184.987 0 0 0 55.13 50.289 Q 54.8 52.869 54.8 53.6 L 54.8 54.4 L 60.4 54.1 Q 63.5 54.1 65 53.9 Z M 81.3 50.8 L 80.6 49.6 A 69.754 69.754 0 0 0 79.513 47.148 Q 78.513 45 77.2 42.5 L 76.7 41 Q 77.585 41.492 79.921 42.177 A 54.034 54.034 0 0 0 80 42.2 Q 83.481 43.414 85.455 44.367 A 17.901 17.901 0 0 1 86.3 44.8 L 86.9 45.2 L 86.9 46 Q 86.5 47.6 84.7 49.8 L 83.2 51 L 82.4 51 A 2.234 2.234 0 0 1 82.125 50.981 Q 81.784 50.938 81.3 50.8 Z" id="0" vector-effect="non-scaling-stroke"/></g></svg>