<svg width="97.4" height="90.7" viewBox="0 0 97.4 90.7" xmlns="http://www.w3.org/2000/svg"><g id="svgGroup" stroke-linecap="round" fill-rule="evenodd" font-size="9pt" stroke="#000" stroke-width="0.25mm" fill="#000" style="stroke:#000;stroke-width:0.25mm;fill:#000"><path d="M 38.1 55.2 L 40.3 53.8 A 133.938 133.938 0 0 0 45.4 50.863 Q 48.469 49 51 47.2 Q 57.391 42.265 60.706 38.836 A 30.429 30.429 0 0 0 62.1 37.3 A 53.284 53.284 0 0 1 61.466 35.429 Q 60.584 32.684 59.255 27.912 A 520.764 520.764 0 0 1 58.4 24.8 A 2.852 2.852 0 0 0 58.323 24.4 Q 58.191 23.918 57.9 23.7 L 55.5 25.6 A 133.563 133.563 0 0 1 54.027 26.777 Q 51.742 28.574 50.589 29.277 A 6.008 6.008 0 0 1 50 29.6 A 0.432 0.432 0 0 1 49.881 29.585 Q 49.748 29.547 49.713 29.411 A 0.442 0.442 0 0 1 49.7 29.3 Q 49.7 29 50.3 27.8 L 53.3 22 Q 57.1 15.1 60 8.2 L 61.3 4.9 L 61.1 3.6 Q 60.833 3.067 60.833 2.578 A 1.731 1.731 0 0 1 60.9 2.1 Q 61.57 1.238 63.158 0.468 A 13.284 13.284 0 0 1 63.3 0.4 L 63.9 0.2 A 436.851 436.851 0 0 1 66.026 1.462 Q 69.945 3.805 71.288 4.748 A 12.693 12.693 0 0 1 71.5 4.9 L 71.9 6.3 L 71.9 7.1 L 69.5 9.5 A 27.149 27.149 0 0 0 67.93 10.972 Q 66.75 12.175 66 13.3 L 63.1 16.7 Q 69.2 16.6 78.9 15.7 A 1.247 1.247 0 0 0 79.123 15.616 Q 79.518 15.43 80.2 14.9 Q 81 14.5 82.4 12.9 L 85.2 10.5 L 87.5 12.5 Q 90.986 15.587 92.289 17.088 A 12.816 12.816 0 0 1 92.3 17.1 Q 92.3 17.295 91.637 17.963 A 13.391 13.391 0 0 1 91.6 18 L 78.7 18.6 L 77.5 18.8 L 82.8 24.4 A 37.759 37.759 0 0 0 81.732 25.517 Q 80.501 26.853 78.95 28.739 A 117.89 117.89 0 0 0 78.9 28.8 Q 74.5 33.6 72.3 36.2 L 71.9 37 L 72.3 37.3 A 376.064 376.064 0 0 0 82.522 41.816 Q 88.688 44.438 95.7 47.2 Q 97.4 47.6 97.4 48 A 0.319 0.319 0 0 1 97.256 48.26 Q 97.021 48.438 96.4 48.5 A 72.965 72.965 0 0 0 91.673 50.703 A 59.807 59.807 0 0 0 89.1 52.1 A 43.813 43.813 0 0 0 87.68 53.173 Q 86.438 54.15 85 55.4 L 84.4 55.4 A 68.852 68.852 0 0 1 80.15 52.812 Q 75.131 49.525 68.6 44.3 L 66 42.1 A 4.313 4.313 0 0 1 65.701 42.323 Q 64.894 42.881 62.7 44.1 A 204.577 204.577 0 0 1 51.287 50.083 A 148.858 148.858 0 0 1 40.5 54.8 A 2.077 2.077 0 0 1 40.277 54.892 Q 39.902 55.027 39.161 55.198 A 30.327 30.327 0 0 1 38.7 55.3 A 3.278 3.278 0 0 1 38.604 55.315 Q 38.204 55.369 38.121 55.265 A 0.101 0.101 0 0 1 38.1 55.2 Z M 0.8 68.6 L 5.2 63.3 L 6.9 61.4 A 72.471 72.471 0 0 0 13.291 49.229 A 62.846 62.846 0 0 0 15.3 43.5 A 74.253 74.253 0 0 0 16.259 37.414 Q 17.131 30.075 17.2 19.9 L 17.2 11.1 L 17.6 11.1 Q 18.1 11.1 18.9 11.4 L 22.6 13.5 L 25.8 15.4 L 28.9 15.2 L 28.6 11.4 Q 28.6 8.9 28.4 6.4 A 17.761 17.761 0 0 0 28.289 5.538 Q 28.102 4.328 27.8 3.8 A 1098.98 1098.98 0 0 1 27.33 3.196 Q 25.728 1.133 25.798 1.198 A 0.066 0.066 0 0 1 25.8 1.2 L 26.9 0.4 L 27.8 0 L 29.3 0.2 A 75.402 75.402 0 0 1 33.691 0.97 A 58.922 58.922 0 0 1 36.8 1.7 Q 38.9 2.1 39.6 2.45 A 1.513 1.513 0 0 1 39.962 2.696 A 1.055 1.055 0 0 1 40.3 3.5 Q 40.3 3.9 39.6 6.3 A 10.922 10.922 0 0 0 39.034 7.749 Q 38.782 8.571 38.712 9.341 A 6.684 6.684 0 0 0 38.7 9.5 L 38.3 12.9 A 11.268 11.268 0 0 0 38.307 13.315 Q 38.337 14.134 38.499 14.299 A 0.191 0.191 0 0 0 38.5 14.3 A 58.262 58.262 0 0 0 41.154 12.612 A 46.234 46.234 0 0 0 43 11.3 L 44.6 10.1 A 92.366 92.366 0 0 1 47.217 11.907 Q 49.86 13.804 51.573 15.375 A 27.551 27.551 0 0 1 51.6 15.4 Q 50.6 16.6 49.5 18 L 48.8 19.2 L 48.4 32 A 88.893 88.893 0 0 1 48.536 32.765 Q 48.796 34.268 48.8 34.686 A 1.34 1.34 0 0 1 48.8 34.7 Q 46.575 34.957 36.223 35.36 A 1529.382 1529.382 0 0 1 32.5 35.5 A 1551.977 1551.977 0 0 0 30.149 35.583 Q 27.19 35.689 25.627 35.76 A 114.666 114.666 0 0 0 24.8 35.8 L 24.1 38.1 Q 21.7 45.2 18.4 51.6 Q 14.3 57.6 9 62.8 Q 4.34 66.67 1.427 68.731 A 40.647 40.647 0 0 1 0 69.7 Q 0 69.6 0.8 68.6 Z M 26.7 90.4 L 26 90 Q 25.847 79.588 25.811 73.044 A 669.374 669.374 0 0 1 25.8 69.4 L 25.5 57.7 L 25.4 52.7 Q 30.9 55.5 33.4 56.5 L 35.9 57.6 L 51.4 57 L 62.9 56.5 L 66.4 52.9 A 40.559 40.559 0 0 1 66.974 52.296 Q 67.763 51.485 68.22 51.131 A 3.11 3.11 0 0 1 68.4 51 Q 73.908 54.081 77.935 57.162 A 55.695 55.695 0 0 1 78.5 57.6 Q 78.405 57.884 76.07 60.319 A 191.526 191.526 0 0 1 75.8 60.6 Q 75.4 66.2 75.4 72.9 A 690.963 690.963 0 0 1 75.396 75.192 Q 75.381 79.763 75.3 80.9 A 14.189 14.189 0 0 1 73.046 83.815 Q 71.195 85.689 68.4 87.4 L 66.8 88.2 L 65.8 88.2 Q 64.617 88.13 64.161 87.674 A 0.948 0.948 0 0 1 63.9 87.2 L 63.1 80 L 38.7 80.5 L 35.7 80.5 L 35.5 80.9 L 35.1 82.5 Q 33.8 85.2 31.5 88.3 A 10.951 10.951 0 0 1 30.57 89.343 Q 29.178 90.7 27.9 90.7 A 2.554 2.554 0 0 1 26.981 90.524 A 3.136 3.136 0 0 1 26.7 90.4 Z M 46.3 77.1 L 58.4 76.7 A 91.415 91.415 0 0 0 59.924 76.688 Q 62.015 76.653 63.008 76.514 A 7.249 7.249 0 0 0 63.1 76.5 Q 63.381 73.412 63.486 61.306 A 1246.052 1246.052 0 0 0 63.5 59.6 A 244.705 244.705 0 0 1 60.106 59.748 Q 54.718 59.95 45.281 60.152 A 2212.829 2212.829 0 0 1 43 60.2 Q 39.9 60.3 36 60.6 Q 35.734 60.6 35.704 61.073 A 2.02 2.02 0 0 0 35.7 61.2 A 49.678 49.678 0 0 0 35.632 62.718 Q 35.5 66.775 35.5 77.5 Q 36.7 77.5 39.5 77.3 Q 41.5 77.3 46.3 77.1 Z M 34.2 32.2 L 38.5 32 L 38.9 17.3 A 172.223 172.223 0 0 0 33.557 17.491 Q 30.552 17.642 27.2 17.9 L 25.8 18.2 Q 25.034 25.473 24.855 30.05 A 65.565 65.565 0 0 0 24.8 32.6 L 25 32.8 Q 30.321 32.61 33.836 32.239 A 65.105 65.105 0 0 0 34.2 32.2 Z M 73.8 19 L 73.8 18.8 L 71.5 18.8 A 237 237 0 0 0 68.118 19.17 Q 63.044 19.764 60.9 20.3 A 0.969 0.969 0 0 0 60.525 20.917 A 1.501 1.501 0 0 0 60.5 21.2 A 2.27 2.27 0 0 0 60.548 21.622 Q 60.69 22.355 61.254 23.721 A 34.166 34.166 0 0 0 61.5 24.3 Q 63.7 28.6 66 31.8 Q 66.344 31.886 66.688 31.602 A 1.588 1.588 0 0 0 66.8 31.5 Q 66.8 31.595 68.252 29.06 A 389.277 389.277 0 0 0 68.4 28.8 A 222.44 222.44 0 0 0 70.706 24.797 Q 71.82 22.814 72.75 21.046 A 112.386 112.386 0 0 0 73.8 19 Z" id="0" vector-effect="non-scaling-stroke"/></g></svg>