<svg width="97.2" height="84" viewBox="0 0 97.2 84" xmlns="http://www.w3.org/2000/svg"><g id="svgGroup" stroke-linecap="round" fill-rule="evenodd" font-size="9pt" stroke="#000" stroke-width="0.25mm" fill="#000" style="stroke:#000;stroke-width:0.25mm;fill:#000"><path d="M 0.2 83.8 L 2.7 82.6 Q 8.2 80 13.7 77.1 A 81.174 81.174 0 0 0 25.927 67.992 A 69.076 69.076 0 0 0 31.6 62.2 Q 35.3 56.3 37.6 50.4 Q 39.6 43.7 40.2 37.1 L 40.2 35.7 L 39.6 35.5 Q 29.7 36 15.2 37.3 L 8.8 37.9 A 25.229 25.229 0 0 1 7.537 36.735 Q 6.7 35.913 5.8 34.9 L 4.3 33.2 A 107.637 107.637 0 0 1 10.448 32.731 A 131.38 131.38 0 0 1 14.4 32.6 A 7816.608 7816.608 0 0 0 25.5 32.239 Q 34.188 31.95 41 31.7 A 351.876 351.876 0 0 0 41.686 13.735 A 385.213 385.213 0 0 0 41.7 12.5 L 41.7 9.1 L 40 9.1 A 233.367 233.367 0 0 0 32.992 9.691 Q 29.13 10.071 24.825 10.605 A 425.878 425.878 0 0 0 19.5 11.3 A 0.728 0.728 0 0 1 19.393 11.29 Q 19.169 11.256 18.7 11.1 A 75.607 75.607 0 0 1 17.448 9.384 Q 16.848 8.535 16.354 7.777 A 36.085 36.085 0 0 1 15.8 6.9 L 25 6.5 L 51.1 5.3 A 1644.326 1644.326 0 0 0 53.847 5.136 Q 56.3 4.988 59.3 4.8 Q 63.439 4.628 65.124 4.306 A 6.82 6.82 0 0 0 65.6 4.2 A 12.192 12.192 0 0 0 66.444 3.726 Q 67.793 2.907 70.216 1.158 A 174.583 174.583 0 0 0 71.8 0 A 685.194 685.194 0 0 1 74.903 2.695 Q 76.114 3.754 77.188 4.705 A 334.113 334.113 0 0 1 79.2 6.5 A 0.772 0.772 0 0 1 79.159 6.722 Q 79.019 7.172 78.4 8.1 Q 63.515 8.1 56.137 8.235 A 280.515 280.515 0 0 0 53.3 8.3 Q 48.9 8.5 47 8.5 L 49.9 9.9 L 53 11.5 A 2.931 2.931 0 0 1 53.334 11.833 Q 53.494 12.022 53.584 12.211 A 1.131 1.131 0 0 1 53.7 12.7 A 1.306 1.306 0 0 1 53.585 12.986 Q 53.169 13.818 51.3 16.5 A 1252.388 1252.388 0 0 0 50.901 20.345 Q 50.256 26.656 50.1 29 L 50.1 31.3 A 944.906 944.906 0 0 0 72.237 30.195 A 860.21 860.21 0 0 0 75.3 30 Q 75.913 29.464 77.053 28.635 A 65.511 65.511 0 0 1 77.8 28.1 L 81.7 25.2 Q 86.2 28.4 90.5 32.1 L 91.3 32.8 L 90.9 33.4 L 90.7 33.9 Q 69.9 34 58 34.5 L 55.2 34.5 L 55.2 35.3 Q 55.4 38.2 56.5 41.5 A 36.655 36.655 0 0 0 58.012 45.066 Q 58.88 46.859 60.014 48.794 A 67.311 67.311 0 0 0 60.8 50.1 Q 70.6 60.4 92.3 71.7 Q 95.4 73 96.6 73.7 Q 97.083 74.022 97.177 74.344 A 0.553 0.553 0 0 1 97.2 74.5 L 97.2 74.9 L 95 75.5 Q 90.416 76.716 85.219 79.595 A 62.413 62.413 0 0 0 84.5 80 A 719.917 719.917 0 0 0 83.67 80.381 Q 82.025 81.138 81.7 81.3 Q 80.7 81.3 79 80 A 24.373 24.373 0 0 1 77.757 79.223 Q 76.527 78.408 74.919 77.186 A 96.818 96.818 0 0 1 73.9 76.4 Q 61.6 64.6 55.2 48.7 Q 53.513 43.441 52.417 36.706 A 114.291 114.291 0 0 1 52.4 36.6 L 52.2 34.5 L 51.1 34.3 L 49.9 34.3 L 49.2 34.5 L 49 36.8 Q 48 44.4 45.3 52 A 65.625 65.625 0 0 1 32.108 66.995 Q 25.682 72.475 17.331 77.261 A 128.924 128.924 0 0 1 10.5 80.9 Q 5.7 82.6 1 84 L 0 84 L 0.2 83.8 Z" id="0" vector-effect="non-scaling-stroke"/></g></svg>