<svg width="93.9" height="90.95" viewBox="0 0 93.9 90.95" xmlns="http://www.w3.org/2000/svg"><g id="svgGroup" stroke-linecap="round" fill-rule="evenodd" font-size="9pt" stroke="#000" stroke-width="0.25mm" fill="#000" style="stroke:#000;stroke-width:0.25mm;fill:#000"><path d="M 25.2 45.8 L 26 41.8 A 0.213 0.213 0 0 1 26.156 41.733 Q 26.332 41.733 26.596 41.996 A 2.163 2.163 0 0 1 26.6 42 L 36.1 48.3 L 29.7 60.6 A 338.563 338.563 0 0 0 30.269 61.356 Q 30.823 62.091 31.244 62.64 A 95.379 95.379 0 0 0 31.6 63.1 A 20.088 20.088 0 0 1 32.919 64.431 A 15.671 15.671 0 0 1 33.8 65.5 A 45.083 45.083 0 0 0 42.56 72.279 A 52.2 52.2 0 0 0 44.9 73.6 L 45.3 73.6 L 45.3 67.4 Q 45.3 48.871 44.758 36.301 A 382.278 382.278 0 0 0 44.7 35 Q 40.3 35.1 28.7 36.4 Q 22.3 37.2 16.1 38.2 A 1.191 1.191 0 0 1 15.354 37.936 A 1.636 1.636 0 0 1 15.2 37.8 Q 12.9 36.3 11.3 34.1 L 10.9 33.3 L 12 33.3 Q 15.063 32.994 20.47 32.863 A 304.975 304.975 0 0 1 24 32.8 L 54.4 31.8 Q 62.298 31.721 66.89 31.268 A 45.368 45.368 0 0 0 69.1 31 Q 72.2 28.9 75.7 26.1 L 76.5 26.7 Q 79.989 29.92 82.437 32.821 A 46.912 46.912 0 0 1 83 33.5 L 83.4 34.2 L 82.8 34.8 L 80.4 34.8 Q 69.7 34.2 60.7 34.2 L 52 34.5 L 49.2 34.6 L 49.6 35 Q 49.974 35.187 51.749 35.899 A 230.961 230.961 0 0 0 52 36 A 73.04 73.04 0 0 1 53.01 36.286 Q 54.565 36.739 55.26 37.036 A 3.365 3.365 0 0 1 55.6 37.2 Q 56.3 37.5 56.3 37.8 A 4.695 4.695 0 0 1 56.16 38.28 Q 55.893 39.064 55.222 40.508 A 70.554 70.554 0 0 1 54.8 41.4 L 54.6 51.1 L 55.1 51.1 Q 61.7 50.6 67.1 49.4 Q 68.248 48.787 70.042 47.589 A 86.131 86.131 0 0 0 71.2 46.8 L 72.6 45.6 L 74.4 47.3 A 104.25 104.25 0 0 1 75.768 48.692 Q 77.997 51.006 78.7 52.1 Q 78.9 52.7 78.9 52.9 L 78.7 53.4 A 1258.264 1258.264 0 0 0 71.15 53.606 Q 61.825 53.891 56.82 54.222 A 130.61 130.61 0 0 0 55.7 54.3 L 54.6 54.3 Q 54.5 61.1 54.1 71.2 L 54.1 75.4 L 60.9 75.4 Q 70.978 75.2 91.31 73.607 A 1417.566 1417.566 0 0 0 91.4 73.6 L 93.3 73.4 L 93.5 73.8 L 93.9 74 L 93.5 74.2 A 42.557 42.557 0 0 0 87.618 79.03 A 33.427 33.427 0 0 0 83.4 84.1 L 82.4 85.9 L 80.8 85.9 Q 70.7 85.9 55.7 84.9 A 45.354 45.354 0 0 1 46.57 82.335 A 35.032 35.032 0 0 1 38.5 77.8 Q 33.4 72.5 29.7 65.7 L 28.7 63.1 L 27.3 65 Q 21.5 73.3 14.8 80.3 A 87.889 87.889 0 0 1 4.931 88.215 A 77.009 77.009 0 0 1 1.4 90.5 A 10.936 10.936 0 0 1 1.082 90.653 Q 0.182 91.067 0.004 90.904 A 0.127 0.127 0 0 1 0 90.9 Q 0.1 90.6 1.2 89.5 Q 14.2 74.4 21.1 60.2 A 128.212 128.212 0 0 0 23.78 51.481 A 157.097 157.097 0 0 0 25.2 45.8 Z M 11.8 32 L 11.3 31.4 Q 10.3 30.3 10 28.6 A 2.675 2.675 0 0 1 10.089 27.894 A 2.079 2.079 0 0 1 10.5 27.1 Q 11.4 25.6 12.5 24.3 A 59.241 59.241 0 0 0 15.414 19.526 A 47.501 47.501 0 0 0 17.2 15.9 Q 17.8 13 18.4 11 L 18.9 10.8 L 19.3 11 A 18.348 18.348 0 0 1 21.031 12.911 Q 21.839 13.931 22.63 15.173 A 34.636 34.636 0 0 1 23.2 16.1 L 23.2 16.7 L 39.1 15.5 L 42 15.5 L 42 7.8 L 41.9 2.4 Q 41.9 1.558 41.929 1.038 A 8.479 8.479 0 0 1 41.95 0.75 A 26.622 26.622 0 0 0 41.971 0.511 Q 42 0.153 42 0 Q 48.4 1.4 55.1 3.4 L 54.6 4.7 A 35.674 35.674 0 0 0 53.093 10.041 A 41.933 41.933 0 0 0 52.7 12.3 L 52.7 14.8 A 9.383 9.383 0 0 0 52.95 14.794 Q 54.263 14.75 61.7 14.4 Q 67.99 14.155 70.743 14.043 A 955.815 955.815 0 0 0 71.8 14 A 766.486 766.486 0 0 1 73.493 12.484 Q 76.389 9.899 77.27 9.181 A 7.654 7.654 0 0 1 77.5 9 A 40.93 40.93 0 0 1 78.837 10.231 Q 80.341 11.671 82.417 13.865 A 219.519 219.519 0 0 1 84.5 16.1 Q 86.233 18.18 86.915 19.659 A 6.547 6.547 0 0 1 87.1 20.1 Q 87.256 20.568 87.29 20.854 A 1.235 1.235 0 0 1 87.3 21 A 0.644 0.644 0 0 1 87.15 21.408 Q 87.073 21.505 86.955 21.595 A 1.68 1.68 0 0 1 86.8 21.7 A 1.435 1.435 0 0 1 86.493 21.82 Q 85.738 22.044 83.485 22.356 A 108.145 108.145 0 0 1 82.4 22.5 Q 76.7 23.2 71.6 24.5 A 25.324 25.324 0 0 1 71.239 24.561 Q 70.002 24.761 69.908 24.625 A 0.043 0.043 0 0 1 69.9 24.6 L 72.4 17 A 1490.695 1490.695 0 0 0 64.419 17.356 Q 55.382 17.782 43.023 18.446 A 6049.755 6049.755 0 0 0 31.1 19.1 A 64.028 64.028 0 0 0 28.255 19.231 Q 26.013 19.387 24.2 19.7 L 23.6 19.7 L 23 21 Q 20.4 25.8 16.6 29.5 A 28.771 28.771 0 0 1 15.168 30.455 Q 13.725 31.353 12.588 31.768 A 8.258 8.258 0 0 1 12.5 31.8 L 11.8 32 Z" id="0" vector-effect="non-scaling-stroke"/></g></svg>