<svg width="92.9" height="90" viewBox="0 0 92.9 90" xmlns="http://www.w3.org/2000/svg"><g id="svgGroup" stroke-linecap="round" fill-rule="evenodd" font-size="9pt" stroke="#000" stroke-width="0.25mm" fill="#000" style="stroke:#000;stroke-width:0.25mm;fill:#000"><path d="M 56 79.3 L 56.6 79.3 Q 56.796 77.238 56.993 72.959 A 366.368 366.368 0 0 0 57 72.8 A 799.343 799.343 0 0 0 57.136 69.683 Q 57.238 67.238 57.3 65.3 L 57.4 62.3 L 57.4 53.1 Q 55.164 53.1 51.727 53.26 A 241.92 241.92 0 0 0 50.9 53.3 A 20.079 20.079 0 0 1 49.591 53.386 A 24.565 24.565 0 0 1 48.75 53.4 Q 47.6 53.4 46.4 53.5 A 1406.328 1406.328 0 0 0 37.328 54.005 Q 26.092 54.669 20.112 55.254 A 124.287 124.287 0 0 0 17.8 55.5 L 7 56.3 A 87.345 87.345 0 0 1 5.981 55.075 Q 4.575 53.35 3.9 52.3 L 20.9 51.7 L 52.3 50.7 A 472.117 472.117 0 0 1 53.698 50.632 Q 56.401 50.505 57.331 50.5 A 13.592 13.592 0 0 1 57.4 50.5 Q 57.4 44.988 57.166 40.706 A 106.753 106.753 0 0 0 57 38.2 L 57 36.7 A 394.606 394.606 0 0 0 43.74 37.074 A 460.591 460.591 0 0 0 37.4 37.4 A 74.763 74.763 0 0 0 34.127 37.477 Q 32.447 37.55 30.572 37.695 A 133.491 133.491 0 0 0 29.3 37.8 Q 13.8 38.9 5.3 40 L 4.3 40.1 L 0 36.2 L 13.3 35.6 L 42.4 34.4 L 42.4 20.3 Q 38.8 20.3 24.8 21.3 Q 21.2 21.7 16.8 21.9 L 13.5 18.5 Q 17.6 18 26.2 17.9 L 42.2 17.5 A 837.642 837.642 0 0 0 42.159 14.157 Q 42.07 7.998 41.925 5.926 A 19.402 19.402 0 0 0 41.9 5.6 L 41.9 4.2 L 40.2 2 A 8.602 8.602 0 0 1 41.025 1.561 Q 42.35 0.934 44.7 0.2 L 45.3 0 L 47.3 0.5 Q 52.798 2.66 55.405 3.953 A 32.369 32.369 0 0 1 55.5 4 L 55.3 4.9 A 9.626 9.626 0 0 1 55.092 5.405 Q 54.874 5.898 54.534 6.561 A 43.422 43.422 0 0 1 54.2 7.2 L 53.1 8.8 L 53.1 17.4 Q 55.55 17.4 59.29 17.283 A 425.386 425.386 0 0 0 61.7 17.2 L 66.5 17 L 69.5 14.2 A 49.685 49.685 0 0 1 70.483 13.163 Q 71.843 11.772 72.613 11.268 A 2.884 2.884 0 0 1 72.9 11.1 A 75.325 75.325 0 0 1 74.984 12.92 Q 77.438 15.138 80.6 18.3 A 0.213 0.213 0 0 1 80.667 18.456 Q 80.667 18.632 80.404 18.896 A 2.163 2.163 0 0 1 80.4 18.9 L 80.2 19.3 A 7892.109 7892.109 0 0 0 72.155 19.511 Q 59.084 19.861 54.769 20.033 A 100.422 100.422 0 0 0 53.3 20.1 Q 52.9 25.6 52.9 33.3 L 52.9 34 L 67.4 33.7 L 70.3 33.7 L 76.1 33.5 Q 79.6 30.9 81 30.1 L 84.3 27.6 L 84.7 27.8 A 73.207 73.207 0 0 1 87.821 30.054 Q 90.975 32.469 92.9 34.6 Q 92.9 35.1 92.5 36.2 L 83.3 36.2 A 809.409 809.409 0 0 0 77.156 36.269 Q 71.239 36.359 67.051 36.529 A 174.404 174.404 0 0 0 63.6 36.7 L 63.6 36.8 L 64.1 37.1 A 8.677 8.677 0 0 0 65.012 37.652 Q 65.473 37.897 66.017 38.128 A 17.29 17.29 0 0 0 66.7 38.4 L 70.3 40.3 L 70.3 40.6 A 10.017 10.017 0 0 1 69.752 41.617 Q 69.431 42.141 69.015 42.707 A 21.146 21.146 0 0 1 68.4 43.5 L 68.1 43.7 L 67.9 50.1 L 75.9 50.1 Q 79.4 46.4 81 44.8 L 82.6 43.4 L 83.7 44.3 Q 88.995 48.596 90.996 50.696 A 18.102 18.102 0 0 1 91 50.7 A 1.114 1.114 0 0 1 90.972 50.922 Q 90.894 51.289 90.604 52.009 A 23.56 23.56 0 0 1 90.4 52.5 L 89 52.5 A 348.97 348.97 0 0 0 82.236 52.57 Q 79.224 52.629 75.89 52.736 A 667.289 667.289 0 0 0 68.9 53 L 67.7 53 L 67.5 77.4 L 67.3 78.8 Q 66.1 81.7 63.2 84.7 Q 60.537 86.982 58.222 88.338 A 20.16 20.16 0 0 1 56.8 89.1 L 55 90 L 54.8 90 Q 54.5 90 54 89.5 Q 53.47 89.121 53.227 88.284 A 4.604 4.604 0 0 1 53.1 87.7 A 16.349 16.349 0 0 0 51.35 84.614 A 11.866 11.866 0 0 0 48.2 81.6 A 18.392 18.392 0 0 1 47.79 81.415 Q 46.628 80.872 46.8 80.7 A 0.557 0.557 0 0 1 47.013 80.59 Q 47.536 80.417 49.159 80.332 A 44.66 44.66 0 0 1 49.9 80.3 A 272.172 272.172 0 0 1 51.577 79.991 Q 54.944 79.381 56 79.3 Z M 27.5 58.3 L 26.3 55.9 Q 26.2 55.5 26.7 55.5 Q 32.3 57.4 39.2 62.5 A 12.238 12.238 0 0 1 40.233 63.608 Q 41.5 65.164 41.5 66.5 A 1.771 1.771 0 0 1 41.49 66.665 Q 41.464 66.936 41.367 67.457 A 28.851 28.851 0 0 1 41.3 67.8 Q 39.5 71.3 36.1 73.2 Q 34.512 73.869 34.041 73.978 A 0.676 0.676 0 0 1 33.9 74 A 1.426 1.426 0 0 1 33.376 73.893 Q 33.168 73.811 32.949 73.666 A 3.584 3.584 0 0 1 32.6 73.4 A 5.046 5.046 0 0 1 31.926 72.355 Q 31.081 70.67 30.5 67.4 A 62.179 62.179 0 0 0 27.991 59.52 A 69.537 69.537 0 0 0 27.5 58.3 Z" id="0" vector-effect="non-scaling-stroke"/></g></svg>