<svg width="99.1" height="89.482" viewBox="0 0 99.1 89.482" xmlns="http://www.w3.org/2000/svg"><g id="svgGroup" stroke-linecap="round" fill-rule="evenodd" font-size="9pt" stroke="#000" stroke-width="0.25mm" fill="#000" style="stroke:#000;stroke-width:0.25mm;fill:#000"><path d="M 48.4 59.2 L 48.9 60.6 A 23.765 23.765 0 0 0 54.321 68.729 A 22.948 22.948 0 0 0 57.5 71.3 A 75.891 75.891 0 0 0 57.925 71.511 Q 59.325 72.2 59.5 72.2 Q 59.31 53.481 59.301 40.812 A 1756.197 1756.197 0 0 1 59.3 39.5 L 59.3 35.5 L 58.8 35.9 L 58.4 36.4 A 0.607 0.607 0 0 1 58.374 36.466 Q 58.28 36.667 58.114 36.513 A 0.523 0.523 0 0 1 58.1 36.5 A 0.178 0.178 0 0 1 58.064 36.428 Q 58 36.221 58 35.5 L 58 34.3 L 58.2 33.9 Q 58.525 33.819 58.916 33.87 A 2.734 2.734 0 0 1 59.1 33.9 L 59.5 34.1 L 60.1 33.5 A 136.667 136.667 0 0 0 65.383 21.655 Q 67.819 15.464 70.042 8.347 A 244.711 244.711 0 0 0 71.5 3.5 L 72.4 0.2 L 82.3 4.9 L 74.5 18.4 A 6.606 6.606 0 0 0 75.244 18.925 Q 76.575 19.75 79.2 20.8 Q 84.867 23.472 87.913 25.619 A 20.183 20.183 0 0 1 89.2 26.6 L 89.8 27.3 L 89.6 30.3 L 89 31.5 Q 88.2 32.9 86.85 33.9 A 7.574 7.574 0 0 1 86.119 34.383 Q 85.219 34.9 84.5 34.9 L 83.7 34.9 L 83.1 34.3 L 80.6 30.5 Q 77.633 25.637 75.413 22.744 A 36.519 36.519 0 0 0 74.5 21.6 L 73.2 20.3 L 71.1 22.6 Q 63.3 31.9 60.9 34.1 A 1.246 1.246 0 0 0 60.619 34.238 Q 60.5 34.315 60.381 34.423 A 2.381 2.381 0 0 0 60.3 34.5 A 2.977 2.977 0 0 0 60.653 34.694 Q 61.259 34.985 62.539 35.417 A 56.203 56.203 0 0 0 63.4 35.7 A 215.36 215.36 0 0 1 65.294 36.363 Q 69.032 37.694 69.6 38.1 Q 69.412 38.572 67.887 41.894 A 1136.677 1136.677 0 0 1 67.7 42.3 L 67.7 50.8 L 70.4 50.8 A 27.067 27.067 0 0 0 81.408 47.43 A 31.738 31.738 0 0 0 82.5 46.8 L 83.1 46.4 L 84.3 47.4 Q 86.2 49.6 87.6 51.6 L 87.8 52.5 L 87.4 52.7 L 87.2 53 L 81.6 53 Q 72.86 53.408 68.99 53.817 A 37.492 37.492 0 0 0 67.5 54 L 67.2 74.7 L 71.2 74.8 L 78.8 75.1 Q 87.3 75.1 96.9 74.5 Q 98.701 74.5 99.028 74.701 A 0.123 0.123 0 0 1 99.1 74.8 A 0.128 0.128 0 0 1 99.039 74.891 Q 98.818 75.065 97.8 75.3 Q 92.1 78.5 88 83.4 L 86.4 85.2 Q 81.5 85.1 73.4 84.4 A 58.497 58.497 0 0 1 64.409 81.851 Q 58.921 79.78 54.7 76.7 A 11.9 11.9 0 0 1 53.038 75.159 A 10.49 10.49 0 0 1 52.5 74.5 A 68.807 68.807 0 0 1 50.227 70.18 Q 49.137 67.925 48.069 65.365 A 110.718 110.718 0 0 1 48 65.2 L 47.2 63.1 A 2.194 2.194 0 0 0 47.001 63.337 Q 46.603 63.872 45.9 65.2 A 108.042 108.042 0 0 1 38.517 76.708 A 79.174 79.174 0 0 1 29.3 87.2 A 12.692 12.692 0 0 1 27.677 88.579 A 11.311 11.311 0 0 1 27.2 88.9 Q 26.354 89.652 26.304 89.432 A 0.143 0.143 0 0 1 26.3 89.4 Q 27.4 87.7 28.1 86.8 Q 34.6 77.1 38.8 65.6 Q 42 54.3 44.1 42.1 Q 44.4 41.2 44.5 41.1 A 96.302 96.302 0 0 1 49.271 43.603 A 123.424 123.424 0 0 1 53.2 45.9 A 13.69 13.69 0 0 1 53.06 46.327 Q 52.384 48.301 48.894 57.849 A 5131.519 5131.519 0 0 1 48.4 59.2 Z M 20.1 88.5 L 20.1 85.1 Q 20.238 82.213 20.47 78.569 A 661.54 661.54 0 0 1 20.7 75.1 Q 21.1 63.7 21.3 55.3 L 21.6 44.7 L 19.7 46.3 Q 9.2 55.1 2 59.9 A 33.038 33.038 0 0 1 1.625 60.178 Q 0.203 61.213 0.025 61.066 A 0.081 0.081 0 0 1 0 61 Q 0 60.5 2.2 58.4 Q 13 46.8 23.4 32.4 Q 26.591 27.429 28.185 24.44 A 31.799 31.799 0 0 0 29.1 22.6 L 30.6 19.8 A 1.517 1.517 0 0 1 30.647 19.694 Q 30.821 19.341 30.995 19.592 A 0.565 0.565 0 0 1 31 19.6 Q 33.067 21.208 36.424 23.754 A 1314.062 1314.062 0 0 0 38.6 25.4 L 38.4 26 A 61.36 61.36 0 0 1 36.794 28.075 Q 34.925 30.395 32.178 33.46 A 259.63 259.63 0 0 1 29.5 36.4 L 28.1 37.7 L 28.3 41.7 A 1049.524 1049.524 0 0 1 28.582 59.981 A 913.646 913.646 0 0 1 28.6 65.8 L 28.5 78.7 A 5.945 5.945 0 0 1 28.261 79.857 A 7.892 7.892 0 0 1 27.9 80.8 A 14.918 14.918 0 0 1 27.133 82.191 Q 26.325 83.504 25.035 85.156 A 58.169 58.169 0 0 1 24.2 86.2 A 9.191 9.191 0 0 1 22.663 87.521 A 6.808 6.808 0 0 1 20.5 88.5 L 20.1 88.5 Z M 51.5 0.8 L 51.5 0 L 51.9 0.4 A 12.817 12.817 0 0 0 52.599 0.839 Q 54.219 1.804 58.518 4.064 A 570.414 570.414 0 0 0 60.5 5.1 L 60.5 5.7 Q 57.438 11.212 55.548 14.732 A 268.312 268.312 0 0 0 54.5 16.7 L 54.1 17.4 L 62.3 22.4 L 62.5 23.2 Q 62.402 25.749 59.997 29.067 A 24.053 24.053 0 0 1 59.9 29.2 Q 58.5 30.1 58.3 30.2 Q 57.7 30.3 57.3 30 L 56.6 29.6 L 56.4 28.2 Q 54.782 23.668 53.556 21.101 A 25.558 25.558 0 0 0 53 20 A 0.139 0.139 0 0 0 52.902 19.96 Q 52.648 19.952 52 20.6 L 49.2 24.2 A 336.713 336.713 0 0 1 44.957 29.519 Q 40.938 34.444 37.96 37.618 A 60.253 60.253 0 0 1 35.3 40.3 A 0.601 0.601 0 0 1 35.234 40.297 Q 35.167 40.289 35.133 40.265 A 0.076 0.076 0 0 1 35.1 40.2 Q 36.4 37.9 37.7 35.7 Q 43.6 24.3 47.6 13.9 A 374.604 374.604 0 0 0 48.857 9.969 Q 50.6 4.4 51.5 0.8 Z M 7.8 32.1 L 10 29.2 L 18.2 18.6 A 174.109 174.109 0 0 0 25.329 7.054 A 148.725 148.725 0 0 0 28.1 1.9 L 28.9 0 A 117.843 117.843 0 0 1 30.724 1.43 Q 31.431 1.996 32.05 2.514 A 56.951 56.951 0 0 1 33.2 3.5 L 36.5 6.1 L 36.9 6.7 L 35.8 7.8 A 194.612 194.612 0 0 1 28.582 14.864 Q 22.05 20.95 13.8 27.7 A 550.534 550.534 0 0 0 12.738 28.505 Q 9.238 31.162 8.8 31.6 Q 7.927 32.211 7.816 32.136 A 0.041 0.041 0 0 1 7.8 32.1 Z" id="0" vector-effect="non-scaling-stroke"/></g></svg>