<svg width="99.9" height="91.7" viewBox="0 0 99.9 91.7" xmlns="http://www.w3.org/2000/svg"><g id="svgGroup" stroke-linecap="round" fill-rule="evenodd" font-size="9pt" stroke="#000" stroke-width="0.25mm" fill="#000" style="stroke:#000;stroke-width:0.25mm;fill:#000"><path d="M 0 91.7 L 0.4 91.1 Q 0.892 90.608 2.26 89.577 A 73.23 73.23 0 0 1 2.9 89.1 Q 16.1 76.1 22.6 58.7 A 105.757 105.757 0 0 0 23.559 51.333 Q 24.431 42.413 24.5 29.9 L 24.3 18.4 Q 26.296 19.398 30.183 21.69 A 402.498 402.498 0 0 1 30.2 21.7 L 34.7 24.7 A 4595.832 4595.832 0 0 0 40.816 24.452 Q 52.641 23.963 56.697 23.719 A 132.378 132.378 0 0 0 57 23.7 Q 56.5 12.1 55.4 1 L 55.1 0 Q 56.477 0 59.594 0.967 A 53.108 53.108 0 0 1 59.7 1 A 39.087 39.087 0 0 1 63.741 2.523 A 28.808 28.808 0 0 1 67.3 4.4 A 1.334 1.334 0 0 1 67.523 4.583 Q 67.857 4.93 67.7 5.4 A 2.798 2.798 0 0 1 67.608 5.817 Q 67.401 6.536 66.772 7.845 A 39.202 39.202 0 0 1 66.5 8.4 L 65 11 Q 64.613 14.389 64.6 18.622 A 95.891 95.891 0 0 0 64.6 18.9 L 64.6 23.5 Q 67.82 23.321 72.801 22.982 A 1320.631 1320.631 0 0 0 74 22.9 L 81.3 22.7 L 81.6 22.1 A 146.93 146.93 0 0 1 83.106 20.706 Q 85.225 18.775 86.5 17.8 L 87.4 17.4 A 504.442 504.442 0 0 1 89.177 18.698 Q 90.763 19.863 92.7 21.3 L 95.4 23.3 L 95.2 24.3 A 2.033 2.033 0 0 1 95.149 24.771 Q 95.062 25.135 94.829 25.382 A 1.264 1.264 0 0 1 94.7 25.5 L 94.5 26.1 L 64.8 26.1 A 87.344 87.344 0 0 0 65.433 30.924 Q 66.344 36.725 68.2 44.7 Q 69.796 50.487 70.796 53.288 A 36.871 36.871 0 0 0 70.8 53.3 L 71.8 51.1 A 305.428 305.428 0 0 0 73.938 46.744 Q 76.206 42.021 77.617 38.584 A 74.605 74.605 0 0 0 78.4 36.6 Q 78.973 34.403 79.181 33.94 A 1.063 1.063 0 0 1 79.2 33.9 Q 79.287 33.9 81.049 34.889 A 234.169 234.169 0 0 1 81.6 35.2 Q 84.378 36.887 86.467 38.475 A 40.791 40.791 0 0 1 86.5 38.5 A 17.497 17.497 0 0 1 87.112 39.068 Q 88.034 39.971 88.24 40.515 A 0.812 0.812 0 0 1 88.3 40.8 Q 88.3 41.1 87.8 41.7 A 74.833 74.833 0 0 1 87.627 41.907 Q 87.328 42.263 87.227 42.372 A 1.084 1.084 0 0 1 87.2 42.4 Q 81.1 50.7 75.9 58.1 L 74.5 60.3 A 43.399 43.399 0 0 0 75.231 61.437 Q 76.45 63.275 78.4 65.9 A 149.62 149.62 0 0 0 83.284 70.554 Q 86.694 73.669 90.8 77.1 L 91.3 77.3 L 91.9 76.4 Q 96 70.2 98.5 67.6 L 98.6 68.2 A 3.569 3.569 0 0 1 98.576 68.585 Q 98.535 68.965 98.42 69.491 A 17.483 17.483 0 0 1 98.3 70 Q 98.1 72.9 98.1 79.6 L 98.3 80.9 L 99.2 83.5 A 18.15 18.15 0 0 1 99.62 85.035 Q 99.786 85.779 99.854 86.438 A 8.461 8.461 0 0 1 99.9 87.3 A 9.081 9.081 0 0 1 98.441 88.668 A 12.182 12.182 0 0 1 97 89.6 A 11.525 11.525 0 0 1 96.207 89.627 Q 94.106 89.627 91.481 88.913 A 29.579 29.579 0 0 1 90.1 88.5 Q 88.033 87.275 84.793 85.112 A 278.901 278.901 0 0 1 82.7 83.7 A 171.947 171.947 0 0 1 78.525 79.984 Q 76.65 78.257 75.042 76.654 A 96.674 96.674 0 0 1 74 75.6 Q 70.2 70.6 67.7 67.4 A 0.435 0.435 0 0 0 67.515 67.447 Q 67.259 67.569 66.9 68 Q 63.072 71.216 56.43 75.955 A 401.924 401.924 0 0 1 52.1 79 A 1183.516 1183.516 0 0 1 47.431 81.769 Q 42.907 84.437 39.578 86.334 A 290.975 290.975 0 0 1 36.8 87.9 L 36.8 87.8 A 0.977 0.977 0 0 1 36.861 87.472 Q 36.956 87.205 37.2 86.9 Q 38.7 85.8 39.6 85.3 Q 52.4 75.1 63 63.5 L 64.4 61.8 Q 64 59 62.8 55.1 A 187.934 187.934 0 0 1 57.907 29.295 A 206.434 206.434 0 0 1 57.7 27.5 L 57.7 26.3 Q 50 26.7 35.1 27.7 L 33.8 27.7 A 429.229 429.229 0 0 0 33.631 30.181 Q 33.38 34.022 32.993 40.609 A 3589.684 3589.684 0 0 0 32.9 42.2 L 37.6 41.9 L 40 41.8 Q 42.7 41.5 45.4 41.5 L 49.5 36.2 Q 53.2 38.6 56.2 41.1 L 57.5 42.2 L 54.6 45.5 L 54.2 47.7 L 52.9 54.7 A 406.837 406.837 0 0 1 52.404 57.927 Q 51.569 63.203 51.1 65 Q 49.5 68.6 46.2 71.6 A 74.19 74.19 0 0 1 43.837 72.963 Q 41.388 74.313 39.6 75 A 0.453 0.453 0 0 1 39.291 74.731 Q 39.206 74.546 39.2 74.242 A 2.356 2.356 0 0 1 39.2 74.2 Q 38 70.3 34.9 67.4 A 15.126 15.126 0 0 1 34.557 67.118 Q 33.881 66.544 33.8 66.3 Q 36.097 66.07 37.925 65.958 A 67.308 67.308 0 0 1 39 65.9 A 12.583 12.583 0 0 0 39.767 65.878 Q 41.02 65.802 41.45 65.45 A 1.318 1.318 0 0 0 41.724 65.122 Q 42.066 64.569 42.342 63.365 A 15.654 15.654 0 0 0 42.4 63.1 Q 44.2 53.7 45.4 44.3 L 35.9 44.5 L 32.9 44.7 A 94.748 94.748 0 0 1 32.594 46.665 Q 31.978 50.403 30.6 57.6 Q 22.8 74.8 3.3 90.1 L 0.4 91.7 L 0 91.7 Z M 77.5 18.9 L 77.1 18.3 L 75.7 15.5 A 102.357 102.357 0 0 0 74.163 12.541 Q 73.441 11.207 72.754 10.051 A 56.249 56.249 0 0 0 72.3 9.3 L 71.4 7.8 Q 71.4 7.711 71.637 7.701 A 1.514 1.514 0 0 1 71.7 7.7 Q 72.207 7.7 72.5 7.772 A 1.265 1.265 0 0 1 72.6 7.8 A 87.725 87.725 0 0 1 78.523 9.249 A 75.781 75.781 0 0 1 80.7 9.9 Q 82.342 10.597 83.167 11.516 A 3.042 3.042 0 0 1 84 13.6 Q 84 15.5 82.85 16.9 A 5.607 5.607 0 0 1 80.207 18.68 A 6.988 6.988 0 0 1 79.8 18.8 Q 78.2 19.3 77.5 18.9 Z" id="0" vector-effect="non-scaling-stroke"/></g></svg>