<svg width="103.1" height="86.5" viewBox="0 0 103.1 86.5" xmlns="http://www.w3.org/2000/svg"><g id="svgGroup" stroke-linecap="round" fill-rule="evenodd" font-size="9pt" stroke="#000" stroke-width="0.25mm" fill="#000" style="stroke:#000;stroke-width:0.25mm;fill:#000"><path d="M 0 84.7 L 1.9 82.5 Q 11.3 69.4 15.9 53.7 Q 18 43.2 18.7 33.8 L 18.8 22.8 Q 18.8 13.2 18.5 3.6 L 18.5 1.4 L 19.2 1.6 A 30.799 30.799 0 0 1 21.687 2.622 Q 22.973 3.213 24.38 3.976 A 58.317 58.317 0 0 1 25.5 4.6 L 27.3 5.6 L 43.9 5 L 45 4.8 L 48.2 1.8 A 24.555 24.555 0 0 1 49.316 0.586 A 27.326 27.326 0 0 1 49.5 0.4 Q 51.72 1.931 55.113 4.4 A 603.146 603.146 0 0 1 57.3 6 L 57.5 6.2 L 54.6 9.9 L 54.6 22.1 A 5609.78 5609.78 0 0 0 45.956 22.106 Q 37.616 22.119 31.642 22.159 A 1270.814 1270.814 0 0 0 26.7 22.2 Q 26.394 26.488 26.205 33.002 A 544.145 544.145 0 0 0 26.1 37.2 Q 30.2 37.2 31 37 Q 30.847 31.181 30.811 27.59 A 200.802 200.802 0 0 1 30.8 25.6 Q 31.5 25.6 34 26.5 Q 35.014 26.968 36.759 27.558 A 67.295 67.295 0 0 0 37.8 27.9 A 2.491 2.491 0 0 1 38.072 27.948 Q 38.6 28.075 38.6 28.4 A 0.61 0.61 0 0 1 38.582 28.517 Q 38.52 28.799 38.238 29.61 A 53.649 53.649 0 0 1 38.1 30 L 37.6 31.1 L 37.4 36.4 L 37.4 36.8 L 42.6 36.6 Q 42.6 32.4 42.8 23.7 L 44.1 24.3 L 49.1 26.3 A 14.839 14.839 0 0 1 49.652 26.59 Q 50.086 26.83 50.4 27.05 Q 50.9 27.4 50.9 27.8 A 0.503 0.503 0 0 1 50.864 27.962 Q 50.731 28.332 50.1 29.2 Q 49.338 30.555 49.221 33.273 A 23.974 23.974 0 0 0 49.2 34.3 A 22.917 22.917 0 0 0 49.206 34.856 Q 49.225 35.624 49.3 35.999 A 3.424 3.424 0 0 0 49.3 36 A 15.667 15.667 0 0 0 49.695 35.742 Q 50.756 35.031 53.6 33 L 55.3 35.2 A 47.37 47.37 0 0 1 55.783 35.795 Q 56.491 36.684 56.763 37.137 A 1.927 1.927 0 0 1 56.9 37.4 A 0.881 0.881 0 0 1 56.972 37.609 Q 56.993 37.708 56.998 37.821 A 1.684 1.684 0 0 1 57 37.9 A 0.441 0.441 0 0 1 56.78 38.281 Q 56.531 38.447 56 38.5 A 18.753 18.753 0 0 1 55.559 38.549 Q 54.832 38.621 53.425 38.73 A 295.235 295.235 0 0 1 52.5 38.8 A 27.705 27.705 0 0 0 50.12 39.032 A 23.784 23.784 0 0 0 49.1 39.2 Q 48.7 45.3 48.7 52.9 Q 50.451 52.422 52.519 51.248 A 27.786 27.786 0 0 0 53.6 50.6 L 55.3 49.5 L 56.6 50.6 A 21.546 21.546 0 0 1 57.788 51.893 A 26.91 26.91 0 0 1 58.6 52.9 Q 59.212 53.665 59.356 54.196 A 1.167 1.167 0 0 1 59.4 54.5 A 1.275 1.275 0 0 1 59.381 54.725 Q 59.339 54.961 59.2 55.1 A 373.178 373.178 0 0 1 54.742 55.358 Q 51.25 55.538 48.5 55.6 L 42.2 55.9 A 313.594 313.594 0 0 0 29.694 56.725 A 277.608 277.608 0 0 0 25.7 57.1 L 24.9 57.1 L 23.3 54.1 A 1533.361 1533.361 0 0 0 24.359 54.011 Q 27.941 53.71 27.813 53.7 A 0.185 0.185 0 0 0 27.8 53.7 Q 29.278 53.7 30.395 53.61 A 16.588 16.588 0 0 0 31.4 53.5 L 31.2 40 A 103.59 103.59 0 0 0 29.501 40.053 Q 27.216 40.145 26.122 40.32 A 6.317 6.317 0 0 0 25.7 40.4 A 1.608 1.608 0 0 0 25.384 40.867 Q 25.185 41.298 25.114 41.952 A 6.027 6.027 0 0 0 25.1 42.1 A 175.104 175.104 0 0 1 23.723 48.771 Q 23.009 51.898 22.254 54.565 A 78.753 78.753 0 0 1 21.2 58 A 114.196 114.196 0 0 1 10.249 75.451 A 126.834 126.834 0 0 1 8.9 77.2 A 88.108 88.108 0 0 1 4.719 81.4 A 100.72 100.72 0 0 1 3.2 82.8 A 43.261 43.261 0 0 1 2.488 83.41 Q 0.123 85.39 0.006 84.772 A 0.386 0.386 0 0 1 0 84.7 Z M 66.9 66 L 68 64.8 L 67.6 63.9 Q 64.7 56.8 62.8 48.7 L 61.6 44 L 58.7 44 L 58.3 43.6 A 3.937 3.937 0 0 1 58.005 43.038 Q 57.871 42.717 57.824 42.413 A 2.075 2.075 0 0 1 57.8 42.1 Q 57.8 41.114 58.523 41.012 A 1.265 1.265 0 0 1 58.7 41 L 77.6 39.8 L 80.7 39.6 L 85.4 35.4 L 87 36.6 Q 90.8 39.2 92.3 41.4 Q 92.219 41.723 91.423 42.566 A 21.357 21.357 0 0 1 91 43 L 87.2 48.5 A 225.841 225.841 0 0 1 83.741 53.82 Q 82.358 55.879 81.073 57.674 A 108.703 108.703 0 0 1 78.6 61 A 65.679 65.679 0 0 0 78 61.844 Q 77.446 62.637 77.095 63.203 A 11.961 11.961 0 0 0 76.8 63.7 A 1419.048 1419.048 0 0 0 79.16 65.189 Q 83.032 67.627 84.487 68.498 A 30.375 30.375 0 0 0 85 68.8 Q 94.3 73.1 102.4 75.8 A 3.929 3.929 0 0 1 102.757 76.206 Q 102.981 76.503 103.1 76.8 A 2.213 2.213 0 0 0 102.829 76.877 Q 102.386 77.028 101.552 77.429 A 38.723 38.723 0 0 0 101 77.7 A 81.865 81.865 0 0 0 94.055 80.895 A 67.64 67.64 0 0 0 90.3 83 L 89.3 83.7 L 87.8 83 Q 79.6 77.5 72.3 70.7 L 71.2 69.6 L 69.6 70.7 Q 63.327 75.169 58.087 78.382 A 134.046 134.046 0 0 1 56.4 79.4 Q 46.716 84.456 42.541 86.06 A 21.885 21.885 0 0 1 41.3 86.5 Q 41.988 85.881 42.959 85.168 A 37.035 37.035 0 0 1 43.9 84.5 A 445.069 445.069 0 0 0 56.02 75.12 Q 61.873 70.418 66.9 66 Z M 61.6 3.2 L 61.4 0.4 L 61.6 0 Q 65 1.9 69 4.2 L 69.8 4.8 L 74.7 4.2 L 76 4 A 14.655 14.655 0 0 1 76.713 3.196 Q 77.484 2.384 78.6 1.4 L 79.8 0 L 85.8 4 Q 86.7 4.6 86.8 5 A 4.512 4.512 0 0 1 86.444 5.89 Q 86.234 6.294 85.93 6.721 A 10.271 10.271 0 0 1 85.4 7.4 A 4.158 4.158 0 0 0 84.953 8.297 A 5.156 5.156 0 0 0 84.8 8.8 L 83.9 12.7 L 83.3 16.1 L 83.2 21.9 Q 83.2 22.819 83.229 23.386 A 10.078 10.078 0 0 0 83.25 23.7 Q 83.293 24.218 83.299 24.438 A 2.347 2.347 0 0 1 83.3 24.5 A 0.436 0.436 0 0 0 83.454 24.725 Q 83.735 24.961 84.5 25.1 L 85.6 25.2 A 17.159 17.159 0 0 0 93.043 23.474 A 19.96 19.96 0 0 0 93.4 23.3 L 95.1 22.7 Q 97.3 25.2 98.5 29.6 Q 98.5 30.7 96.5 31.3 Q 95.105 31.71 91.421 32.053 A 119.079 119.079 0 0 1 89.7 32.2 Q 87.374 32.379 83.768 32.718 A 706.313 706.313 0 0 0 82.9 32.8 L 81.7 32.6 A 19.265 19.265 0 0 1 77.613 30.86 A 21.864 21.864 0 0 1 77 30.5 Q 76.193 29.4 75.655 27.654 A 17.492 17.492 0 0 1 75.3 26.3 A 161.848 161.848 0 0 1 75.394 22.875 Q 75.6 17.325 76.2 9.3 A 4.332 4.332 0 0 0 76.257 8.921 Q 76.3 8.525 76.3 8 A 5.732 5.732 0 0 0 76.295 7.757 Q 76.28 7.391 76.213 7.229 A 0.429 0.429 0 0 0 76.2 7.2 Q 73.2 7.3 69.1 8 L 68.6 12.2 A 150.756 150.756 0 0 1 67.814 19.272 Q 66.881 26.088 65.469 30.642 A 34.783 34.783 0 0 1 64.8 32.6 Q 59.8 38.9 54.4 43.2 A 1.201 1.201 0 0 1 54.267 43.193 Q 54 43.163 54 43 Q 54.1 42.8 54.9 41.7 Q 59.3 35.4 60.9 26.9 A 156.208 156.208 0 0 0 61.673 16.877 A 130.301 130.301 0 0 0 61.8 11.2 Q 61.8 8.5 61.6 3.2 Z M 13 85.1 L 13 84.7 A 18.142 18.142 0 0 1 13.519 84.15 Q 14.4 83.25 15.9 81.9 Q 24.4 72.8 31.4 61.8 L 32.9 59.3 Q 35.589 61.591 38.577 64.775 A 96.278 96.278 0 0 1 38.6 64.8 Q 38.94 65.225 38.991 65.65 A 1.258 1.258 0 0 1 39 65.8 A 36.06 36.06 0 0 1 37.382 67.352 Q 34.692 69.8 29.391 74.038 A 484.8 484.8 0 0 1 25.9 76.8 A 325.011 325.011 0 0 1 22.319 79.344 Q 17.2 82.925 13.6 85.1 L 13 85.1 Z M 35.3 19.3 L 40.6 19 L 44.8 19 A 293.815 293.815 0 0 0 45.255 12.224 A 250.608 250.608 0 0 0 45.4 9.3 L 45.4 7.4 A 2227.617 2227.617 0 0 0 40.064 7.648 Q 29.456 8.156 27.1 8.4 Q 26.8 13.9 26.7 19.7 L 35.3 19.3 Z M 79.6 42.4 L 64.7 43.4 A 73.74 73.74 0 0 0 66.306 48.471 A 60.179 60.179 0 0 0 67.4 51.3 L 70.2 56.6 A 32.465 32.465 0 0 0 70.655 57.448 Q 71.534 59.027 71.964 59.26 A 0.29 0.29 0 0 0 72.1 59.3 Q 72.5 58.8 73.4 56.9 A 172.812 172.812 0 0 0 75.513 52.581 Q 77.723 47.887 78.945 44.413 A 42.426 42.426 0 0 0 79.6 42.4 Z M 49.5 75.6 L 49.3 75.2 A 15.167 15.167 0 0 1 48.681 73.936 Q 47.965 72.303 47.2 69.8 A 46.99 46.99 0 0 0 45.78 66.106 Q 44.538 63.263 43.1 61.2 A 10.985 10.985 0 0 0 42.918 60.77 Q 42.647 60.168 42.428 59.929 A 0.93 0.93 0 0 0 42.4 59.9 L 42.5 59.9 L 43.6 60.2 L 46.7 61.4 A 53.944 53.944 0 0 1 50.141 63.418 Q 53.326 65.46 55.159 67.422 A 14.65 14.65 0 0 1 55.5 67.8 L 55.9 68.8 L 55.9 70.4 A 4.927 4.927 0 0 1 55.175 72.945 A 6.96 6.96 0 0 1 54.4 74 A 9.138 9.138 0 0 1 52.188 75.18 A 11.632 11.632 0 0 1 50.8 75.6 L 49.5 75.6 Z M 42.6 40.6 L 42.4 39.4 L 37.6 39.6 Q 37.1 44.5 37 53.5 L 42.4 53.3 Q 42.6 45.1 42.6 40.6 Z" id="0" vector-effect="non-scaling-stroke"/></g></svg>