<svg width="100.75" height="92.1" viewBox="0 0 100.75 92.1" xmlns="http://www.w3.org/2000/svg"><g id="svgGroup" stroke-linecap="round" fill-rule="evenodd" font-size="9pt" stroke="#000" stroke-width="0.25mm" fill="#000" style="stroke:#000;stroke-width:0.25mm;fill:#000"><path d="M 66.35 78.4 L 66.35 65.8 Q 58.65 66 46.55 66.7 L 43.75 66.9 L 43.35 66.7 Q 42.55 65.6 41.55 63.5 L 42.05 63.5 Q 44.45 63.5 45.25 63.1 A 9.698 9.698 0 0 1 46.354 61.91 A 11.615 11.615 0 0 1 46.95 61.4 A 81.228 81.228 0 0 0 53.275 56.13 A 64.978 64.978 0 0 0 57.45 51.9 A 32.16 32.16 0 0 0 58.94 49.682 Q 59.787 48.294 60.35 47 L 60.35 46.4 L 54.25 46.6 L 53.35 47.7 A 30.818 30.818 0 0 1 51.608 49.589 Q 49.805 51.375 48.218 52.213 A 8.491 8.491 0 0 1 48.05 52.3 L 47.65 52.3 Q 47.267 47.323 47.06 39.006 A 638.872 638.872 0 0 1 46.95 33.6 Q 46.851 26.881 46.557 16.94 A 2037.044 2037.044 0 0 0 46.55 16.7 L 46.35 12.2 Q 46.252 10.833 46.345 10.801 A 0.014 0.014 0 0 1 46.35 10.8 L 54.45 15.2 L 55.15 14.4 A 21.703 21.703 0 0 0 56.019 13.35 Q 56.98 12.12 58.23 10.258 A 110.319 110.319 0 0 0 59.45 8.4 L 63.95 0 L 67.75 2.1 L 72.85 5.5 A 0.601 0.601 0 0 1 72.917 5.503 Q 72.984 5.511 73.017 5.535 A 0.076 0.076 0 0 1 73.05 5.6 A 8.665 8.665 0 0 1 72.42 6.109 Q 71.357 6.904 69.184 8.235 A 131.81 131.81 0 0 1 67.75 9.1 A 692.102 692.102 0 0 0 65.27 10.679 Q 60.48 13.744 58.87 14.912 A 21.202 21.202 0 0 0 58.75 15 L 58.35 15.2 Q 62.65 15.1 67.75 14.8 Q 73.35 14.5 80.05 14.4 L 85.25 9.4 L 88.25 12 A 64.706 64.706 0 0 1 89.615 12.98 Q 91.456 14.342 92.216 15.163 A 5.669 5.669 0 0 1 92.25 15.2 A 20.257 20.257 0 0 1 92.624 15.618 Q 93.302 16.401 93.347 16.665 A 0.209 0.209 0 0 1 93.35 16.7 Q 92.85 17.8 91.55 19.5 L 90.65 19.9 Q 90.573 30.925 90.38 37.729 A 288.858 288.858 0 0 1 90.25 41.5 Q 89.45 46 86.55 48.9 L 85.45 50 A 21.513 21.513 0 0 1 84.283 50.228 Q 83.728 50.319 83.245 50.362 A 9.015 9.015 0 0 1 82.45 50.4 L 81.45 50.4 L 80.45 47.6 L 79.85 45.8 L 67.55 46 L 66.55 47.7 Q 64.45 51 60.55 54.9 Q 53.95 60.1 46.95 62.7 L 45.65 63.1 L 47.45 63.1 L 51.65 63.2 L 57.45 63.1 L 66.35 62.9 Q 66.35 52.239 66.508 49.629 A 11.029 11.029 0 0 1 66.55 49.1 L 66.85 49.1 Q 67.35 49.1 68.55 49.5 L 71.35 50.4 Q 74.944 51.299 75.747 51.699 A 2.229 2.229 0 0 1 75.75 51.7 A 4.319 4.319 0 0 1 75.707 52.279 Q 75.625 52.884 75.385 53.685 A 15.265 15.265 0 0 1 75.35 53.8 A 15.987 15.987 0 0 0 75.034 55.486 Q 74.75 57.544 74.75 60.5 L 74.75 62.7 L 87.65 62.5 L 93.15 57.4 A 74.384 74.384 0 0 1 97.375 60.914 A 83.377 83.377 0 0 1 98.35 61.8 L 100.75 64 L 100.75 64.4 Q 100.509 64.641 100.267 64.753 A 1.123 1.123 0 0 1 100.15 64.8 L 94.85 64.9 L 81.15 65.2 L 74.95 65.4 L 74.75 73.5 Q 74.65 80.6 74.25 83.8 A 6.595 6.595 0 0 1 73.856 85.41 Q 73.585 86.137 73.14 86.914 A 14.721 14.721 0 0 1 72.45 88 Q 70.91 90.214 69.092 91.409 A 9.343 9.343 0 0 1 68.95 91.5 A 6.999 6.999 0 0 1 68.447 91.776 Q 67.791 92.1 67.35 92.1 Q 66.885 92.1 66.593 91.581 A 1.877 1.877 0 0 1 66.55 91.5 Q 66.363 88.974 66.351 79.705 A 1006.221 1006.221 0 0 1 66.35 78.4 Z M 17.65 68.8 L 17.65 45.3 Q 17.35 45.6 14.65 48.7 A 135.727 135.727 0 0 1 6.764 57.123 A 151.222 151.222 0 0 1 5.45 58.4 A 63.606 63.606 0 0 1 4.057 59.722 Q 1.072 62.464 0.25 62.3 Q -0.25 62.1 0.25 61.3 A 11.865 11.865 0 0 1 0.814 60.496 Q 1.123 60.09 1.507 59.641 A 29.129 29.129 0 0 1 2.35 58.7 Q 6.35 54.1 9.25 49.7 Q 13.95 41.9 18.95 31.6 Q 22.55 22.6 24.35 17.3 A 0.886 0.886 0 0 0 24.243 17.288 Q 23.492 17.237 19.006 17.514 A 496.169 496.169 0 0 0 17.65 17.6 L 12.95 18.1 L 10.15 18.4 L 9.55 17.8 A 20.21 20.21 0 0 1 8.317 16.013 A 17.285 17.285 0 0 1 7.85 15.2 A 12422.465 12422.465 0 0 1 10.796 15.07 Q 14.177 14.922 16.047 14.842 A 1088.929 1088.929 0 0 1 17.05 14.8 L 22.35 14.5 A 168.823 168.823 0 0 0 25.786 14.383 Q 28.825 14.25 32.45 14 L 33.25 14 Q 37.389 10.221 38.532 9.437 A 2.832 2.832 0 0 1 38.75 9.3 A 33.947 33.947 0 0 1 40.762 11.015 Q 41.788 11.955 42.883 13.086 A 64.281 64.281 0 0 1 43.75 14 A 9.631 9.631 0 0 1 44.052 14.452 Q 44.688 15.472 44.512 15.904 A 0.423 0.423 0 0 1 44.35 16.1 Q 33.183 16.678 27.762 17.07 A 241.459 241.459 0 0 0 27.35 17.1 L 26.35 17.3 A 305.006 305.006 0 0 1 28.036 18.409 Q 30.906 20.31 31.663 20.934 A 2.735 2.735 0 0 1 31.85 21.1 L 32.45 21.5 L 32.25 21.9 L 31.05 23.9 A 13.193 13.193 0 0 0 30.007 25.177 Q 29 26.566 27.95 28.6 L 21.95 38.2 L 22.85 38.4 L 23.65 38.8 L 31.25 38.2 L 32.05 38.2 Q 33.666 36.123 34.748 35.052 A 9.688 9.688 0 0 1 35.35 34.5 L 35.75 33.9 L 36.15 34.1 Q 39.75 36.9 41.35 38 L 42.45 38.8 L 42.45 40.2 Q 40.91 41.933 40.111 42.739 A 19.283 19.283 0 0 1 40.05 42.8 L 39.85 43 L 39.85 67.2 A 78.849 78.849 0 0 1 39.025 67.283 Q 38.004 67.379 37.46 67.396 A 6.784 6.784 0 0 1 37.25 67.4 Q 33.728 67.477 28.037 68.022 A 298.544 298.544 0 0 0 24.35 68.4 L 24.05 71.6 Q 23.35 78.2 20.55 81.9 A 6.902 6.902 0 0 1 20.175 82.212 Q 19.568 82.679 19.184 82.699 A 0.652 0.652 0 0 1 19.15 82.7 A 1.159 1.159 0 0 1 18.675 82.594 Q 18.512 82.522 18.35 82.4 A 1.177 1.177 0 0 1 18.13 81.827 Q 17.681 79.711 17.652 70.149 A 446.966 446.966 0 0 1 17.65 68.8 Z M 31.65 65.2 L 32.05 65.2 A 2458.116 2458.116 0 0 0 32.137 60.106 Q 32.238 53.757 32.249 50.44 A 230.63 230.63 0 0 0 32.25 49.7 L 32.45 41.3 L 24.05 41.5 L 24.05 65.6 Q 28.931 65.508 31.267 65.246 A 21.253 21.253 0 0 0 31.65 65.2 Z M 79.05 43 L 81.15 43 L 81.15 31.1 A 574.772 574.772 0 0 0 78.252 31.246 Q 72.655 31.545 70.789 31.782 A 15.349 15.349 0 0 0 70.65 31.8 A 1639.764 1639.764 0 0 0 69.942 36.225 Q 69.665 37.975 69.417 39.569 A 908.374 908.374 0 0 0 68.95 42.6 L 68.75 43.4 Q 74.35 43.3 79.05 43 Z M 81.15 28.3 L 81.35 16.9 Q 77.598 16.977 74.609 17.17 A 95.935 95.935 0 0 0 72.85 17.3 L 71.45 17.4 L 71.25 18 L 71.05 29 L 77.35 28.6 A 117.773 117.773 0 0 0 78.15 28.544 Q 79.425 28.45 81.15 28.3 Z M 63.65 19.5 L 63.65 17.6 A 324.084 324.084 0 0 0 61.065 17.645 Q 55.875 17.756 54.25 18 L 54.05 18 L 54.05 29.2 L 63.25 29 A 63.128 63.128 0 0 0 63.49 25.953 Q 63.57 24.53 63.61 22.917 A 138.009 138.009 0 0 0 63.65 19.5 Z M 60.35 43.4 L 62.25 43.4 A 804.154 804.154 0 0 0 62.605 39.769 Q 63.172 33.835 63.25 31.802 A 54.21 54.21 0 0 1 63.25 31.8 L 54.05 32 A 433.75 433.75 0 0 0 54.103 35.451 Q 54.216 41.134 54.45 43.4 A 0.097 0.097 0 0 0 54.524 43.473 Q 54.759 43.575 55.736 43.595 A 25.406 25.406 0 0 0 56.25 43.6 A 15.291 15.291 0 0 0 56.668 43.593 Q 57.75 43.563 60.35 43.4 Z" id="0" vector-effect="non-scaling-stroke"/></g></svg>