<svg width="80.2" height="88.1" viewBox="0 0 80.2 88.1" xmlns="http://www.w3.org/2000/svg"><g id="svgGroup" stroke-linecap="round" fill-rule="evenodd" font-size="9pt" stroke="#000" stroke-width="0.25mm" fill="#000" style="stroke:#000;stroke-width:0.25mm;fill:#000"><path d="M 59.1 77.9 L 59.3 77.7 L 60.9 77.5 A 29.226 29.226 0 0 0 62.816 77.148 Q 64.666 76.74 65.875 76.161 A 8.113 8.113 0 0 0 66 76.1 L 67.1 75.7 L 67.3 75 L 67.3 65.1 A 1328.252 1328.252 0 0 0 67.223 50.466 Q 67.15 43.779 67.005 37.804 A 760.63 760.63 0 0 0 66.9 33.9 L 52.1 34.7 L 50.3 36.1 Q 48.734 37.389 47.975 37.915 A 8.635 8.635 0 0 1 47.85 38 A 3.448 3.448 0 0 1 47.295 38.305 Q 46.941 38.456 46.599 38.49 A 1.999 1.999 0 0 1 46.4 38.5 A 2.102 2.102 0 0 1 45.864 38.424 Q 45.378 38.296 44.783 37.949 A 7.324 7.324 0 0 1 44.7 37.9 L 44.1 37.5 L 44.1 26.3 Q 43.9 10.4 43.5 3.7 A 12.402 12.402 0 0 1 43.485 3.508 Q 43.42 2.543 43.582 2.412 A 0.098 0.098 0 0 1 43.6 2.4 L 43.7 2.4 Q 44.04 2.4 45.903 2.98 A 92.708 92.708 0 0 1 46.6 3.2 Q 49.7 4.5 52.3 5.5 Q 58.1 5.5 63.4 5.1 Q 64.1 5.1 65.5 4.3 A 14.221 14.221 0 0 0 66.667 3.512 Q 67.296 3.044 67.971 2.455 A 29.209 29.209 0 0 0 68.8 1.7 L 70.8 0 L 72.2 1.1 A 49.194 49.194 0 0 1 74.642 2.586 Q 76.525 3.813 77.9 5 Q 79.724 6.666 80.102 7.513 A 0.976 0.976 0 0 1 80.2 7.9 A 0.848 0.848 0 0 1 80.089 8.153 Q 79.734 8.745 78.3 10.1 L 76.5 11.7 Q 77.8 46.4 78.5 69.7 L 78.5 73.7 L 78.2 74.8 Q 75.7 79.9 72.2 84.5 Q 70.3 86.2 67.9 87.4 Q 66.488 87.93 65.776 87.836 A 1.226 1.226 0 0 1 65.6 87.8 A 0.751 0.751 0 0 1 65.418 87.582 Q 65.182 87.189 64.986 86.248 A 14.706 14.706 0 0 1 64.9 85.8 A 11.084 11.084 0 0 0 63.73 83.331 Q 62.731 81.731 61.1 80.1 Q 60 79 59.1 77.9 Z M 3.1 42.3 L 3.1 31.8 L 2.8 13.7 L 2.7 8.3 L 0.8 5.9 L 0 4.9 L 0.4 4.7 A 5.57 5.57 0 0 1 1.49 4.073 Q 2.035 3.832 2.698 3.649 A 12.678 12.678 0 0 1 3.8 3.4 L 4.9 3.4 Q 8.186 5.093 9.39 6.092 A 6.16 6.16 0 0 1 9.4 6.1 L 11.1 6.9 A 542.874 542.874 0 0 0 14.698 6.752 Q 19.229 6.55 21.577 6.348 A 50.075 50.075 0 0 0 22.1 6.3 L 23.7 5.2 Q 25.6 3.7 26.5 3 L 28.1 1.7 Q 30.9 3.5 36.1 7.1 Q 36.015 7.611 34.046 10.44 A 133.11 133.11 0 0 1 33.3 11.5 L 33.3 21.6 A 288.42 288.42 0 0 0 33.329 25.84 Q 33.412 31.457 33.735 34.114 A 15.902 15.902 0 0 0 33.9 35.2 L 33.9 35.8 L 29.8 35.8 A 756.597 756.597 0 0 0 24.396 35.991 Q 13.656 36.413 11.3 36.9 L 10.9 75.9 Q 9.9 82.5 6.8 87.4 Q 6 88.1 5.6 88.1 A 1.97 1.97 0 0 1 5.109 88.034 Q 4.819 87.959 4.5 87.8 A 4.774 4.774 0 0 1 3.258 86.517 Q 2.879 85.953 2.592 85.238 A 8.719 8.719 0 0 1 2.5 85 Q 2.331 82.806 2.59 77.053 A 293.579 293.579 0 0 1 2.7 74.8 A 868.012 868.012 0 0 0 2.944 63.714 Q 3.022 58.82 3.061 53.466 A 1532.283 1532.283 0 0 0 3.1 42.3 Z M 54 8.5 L 52 8.5 L 52 18.6 A 12.53 12.53 0 0 0 52.722 18.572 Q 54.359 18.472 58.496 18.014 A 521.694 521.694 0 0 0 60.4 17.8 Q 62.6 17.7 64 17.4 L 64.9 19.5 L 64.9 20.4 Q 56.704 20.953 52.748 21.505 A 47.329 47.329 0 0 0 52.1 21.6 L 52 32 A 33.717 33.717 0 0 0 52.788 31.989 Q 53.938 31.962 55.914 31.865 A 329.988 329.988 0 0 0 57.2 31.8 Q 60.7 31.3 63.6 31.2 A 99.996 99.996 0 0 0 64.471 31.196 Q 66.213 31.181 66.7 31.1 Q 66.7 25.1 66.2 7.9 Q 63.6 7.9 54 8.5 Z M 21.7 33.5 L 24.5 33.5 L 24.5 22 L 20.2 22 Q 14.583 22.46 11.933 22.921 A 24.638 24.638 0 0 0 11.5 23 L 11.1 23 Q 11.1 31.6 11.3 33.7 L 11.3 33.9 Q 15.196 33.805 21.078 33.529 A 815.001 815.001 0 0 0 21.7 33.5 Z M 18.7 19.3 L 24.5 18.6 L 24.5 9.1 Q 17.88 9.279 13.581 9.618 A 98.803 98.803 0 0 0 12.6 9.7 A 1.091 1.091 0 0 0 11.985 10.221 Q 11.885 10.396 11.82 10.624 A 2.442 2.442 0 0 0 11.8 10.7 A 21.689 21.689 0 0 0 11.542 12.341 Q 11.363 13.825 11.3 15.7 L 11.3 20.2 A 20.954 20.954 0 0 1 12.048 20.077 Q 13.987 19.788 18.7 19.3 Z" id="0" vector-effect="non-scaling-stroke"/></g></svg>