<svg width="79.2" height="88.4" viewBox="0 0 79.2 88.4" xmlns="http://www.w3.org/2000/svg"><g id="svgGroup" stroke-linecap="round" fill-rule="evenodd" font-size="9pt" stroke="#000" stroke-width="0.25mm" fill="#000" style="stroke:#000;stroke-width:0.25mm;fill:#000"><path d="M 65 88.4 L 64.8 88 L 64.5 86 A 12.947 12.947 0 0 0 61.199 81.232 A 15.965 15.965 0 0 0 60.1 80.3 Q 58.6 79.4 59 79.2 A 1.258 1.258 0 0 1 59.3 79.082 Q 59.848 78.929 61.104 78.846 A 35.108 35.108 0 0 1 62 78.8 A 21.463 21.463 0 0 0 63.349 78.696 Q 63.985 78.625 64.524 78.518 A 8.876 8.876 0 0 0 65.4 78.3 A 7.535 7.535 0 0 0 66.004 78.176 Q 66.737 77.991 67.1 77.7 L 67.5 77.1 L 67.5 63.9 Q 67.5 48.1 67.1 31.1 L 67.1 25.2 L 64.1 25.2 A 205.074 205.074 0 0 0 56.939 25.402 Q 52.569 25.606 48.8 26 A 1.551 1.551 0 0 0 48.453 26.118 Q 48.125 26.271 47.731 26.591 A 6.326 6.326 0 0 0 47.6 26.7 Q 46.066 27.783 45.021 28.255 A 6.7 6.7 0 0 1 44.8 28.35 A 3.552 3.552 0 0 1 44.324 28.509 Q 44.007 28.588 43.719 28.588 A 1.806 1.806 0 0 1 42.9 28.4 L 42.3 28 L 42.3 27.1 A 466.811 466.811 0 0 1 42.019 14.894 A 408.908 408.908 0 0 1 42 11 L 42.1 2.5 Q 44.231 3.188 46.93 4.159 A 254.425 254.425 0 0 1 49.5 5.1 L 50.7 5.5 L 56.6 5.1 A 18.74 18.74 0 0 1 57.482 4.98 Q 59.657 4.728 65.135 4.363 A 604.599 604.599 0 0 1 66.1 4.3 L 71 0 L 71.6 0.4 Q 74.6 2.2 77.4 4.5 A 19.016 19.016 0 0 1 78.012 5.102 Q 79.2 6.331 79.2 6.9 A 0.955 0.955 0 0 1 79.101 7.283 Q 78.778 7.998 77.4 9.3 L 75.9 10.8 L 76.6 50.4 L 76.9 66.5 Q 76.995 67.645 77 69.519 A 77.838 77.838 0 0 1 77 69.7 A 28.569 28.569 0 0 1 76.275 75.921 A 20.908 20.908 0 0 1 73.2 83 A 38.039 38.039 0 0 1 68.974 86.382 A 30.987 30.987 0 0 1 65.6 88.4 L 65 88.4 Z M 0 87.8 L 0 77.9 L 0.4 53.8 L 0.5 32.9 A 1582.501 1582.501 0 0 0 0.458 21.003 Q 0.423 16.339 0.358 12.163 A 789.988 789.988 0 0 0 0.2 4.3 L 0.2 2.7 L 5.8 5.3 L 8.2 6.7 Q 16.372 6.225 21.835 5.75 A 246.481 246.481 0 0 0 22.4 5.7 L 26.9 1.3 Q 29.273 2.908 32.819 5.571 A 329.718 329.718 0 0 1 35.1 7.3 L 33.1 9.7 L 32 10.6 Q 31.6 25.6 31.4 26.9 L 28.2 27 L 24.5 26.9 L 21.2 26.9 Q 15.1 26.9 9.3 27.3 L 8 27.3 L 7.8 79.8 L 7.6 80.7 A 16.841 16.841 0 0 1 4.919 85.001 A 21.11 21.11 0 0 1 3.2 86.8 L 1.9 87.6 L 0.9 87.8 L 0 87.8 Z M 57.4 53 L 57 52.8 L 57 51.7 L 56.6 49.8 L 56.6 48.9 L 56 48.7 Q 50.6 49.7 42.3 51.9 L 41.1 52.3 L 40.4 51.9 Q 39.4 51.6 39 50 Q 39 49.614 38.627 48.761 A 11.564 11.564 0 0 0 38.6 48.7 A 0.117 0.117 0 0 1 38.666 48.602 Q 38.827 48.502 39.382 48.5 A 6.285 6.285 0 0 1 39.4 48.5 L 40 48.5 L 41.5 47.6 A 148.296 148.296 0 0 0 43.651 45.628 Q 46.62 42.849 47.823 41.33 A 10.987 10.987 0 0 0 48 41.1 L 38 42.6 Q 36.5 39.3 36.3 38.9 A 0.992 0.992 0 0 1 36.554 38.782 Q 36.816 38.7 37.2 38.7 A 11.678 11.678 0 0 0 39.158 38.461 Q 40.34 38.208 41.3 37.7 A 4.926 4.926 0 0 0 41.515 37.405 Q 41.818 36.961 42.293 36.139 A 54.239 54.239 0 0 0 42.6 35.6 Q 45.4 31.4 48.8 26.7 Q 51.139 28.01 53.653 30.195 A 41.552 41.552 0 0 1 54 30.5 A 0.099 0.099 0 0 1 54.03 30.504 Q 54.155 30.545 53.7 31 Q 53.402 31.298 51.722 32.188 A 61.525 61.525 0 0 1 51.7 32.2 A 394.629 394.629 0 0 0 49.012 34.069 Q 45.692 36.4 43.901 37.786 A 46.908 46.908 0 0 0 43.5 38.1 A 125.333 125.333 0 0 0 44.744 38.238 Q 46.525 38.425 47.8 38.5 L 50.1 38.7 Q 51.938 36.786 53.13 35.458 A 57.338 57.338 0 0 0 53.8 34.7 L 56.2 31.8 Q 57.8 33.2 59.3 34.3 A 63.845 63.845 0 0 0 59.787 34.782 Q 60.435 35.416 60.763 35.691 A 3.371 3.371 0 0 0 60.9 35.8 A 1.638 1.638 0 0 1 60.968 35.854 Q 61.26 36.098 60.905 36.1 A 1.054 1.054 0 0 1 60.9 36.1 A 33.021 33.021 0 0 0 59.981 36.725 Q 57.713 38.313 52.508 42.288 A 777.449 777.449 0 0 0 52.1 42.6 L 45.2 47.7 A 14.318 14.318 0 0 0 45.835 47.733 Q 48.51 47.819 54.586 47.24 A 225.809 225.809 0 0 0 55 47.2 L 56 47.2 L 56 46.4 L 54 42.5 Q 55.8 43 60 45.3 A 17.493 17.493 0 0 1 61.424 46.35 Q 62.097 46.904 62.601 47.459 A 7.331 7.331 0 0 1 63.4 48.5 Q 63.326 49.534 62.598 50.731 A 9.932 9.932 0 0 1 62 51.6 A 11.097 11.097 0 0 1 60.922 52.369 Q 59.737 53.104 58.754 53.189 A 2.941 2.941 0 0 1 58.5 53.2 A 2.234 2.234 0 0 1 58.225 53.181 Q 57.884 53.138 57.4 53 Z M 15.2 53.4 L 14.4 51.7 A 64.267 64.267 0 0 1 14.166 51.298 Q 13.4 49.975 13.4 49.8 Q 13.587 49.238 15.005 49.202 A 7.85 7.85 0 0 1 15.2 49.2 L 16.4 49.2 L 18.3 47.7 Q 23 43.8 24.9 41.5 A 616.563 616.563 0 0 0 21.863 42.196 Q 18.044 43.082 16.05 43.61 A 44.688 44.688 0 0 0 15 43.9 A 0.874 0.874 0 0 1 14.703 43.649 Q 14.529 43.425 14.415 43.051 A 3.112 3.112 0 0 1 14.4 43 A 2.682 2.682 0 0 0 14.296 42.567 Q 14.103 41.963 13.6 41.1 A 0.992 0.992 0 0 1 13.482 40.846 Q 13.4 40.584 13.4 40.2 A 0.589 0.589 0 0 1 13.436 39.984 Q 13.537 39.727 13.917 39.703 A 1.292 1.292 0 0 1 14 39.7 Q 15.5 39.4 17.2 38.5 Q 18.731 36.663 21.083 33.184 A 178.457 178.457 0 0 0 22.6 30.9 A 88.549 88.549 0 0 1 23.093 29.961 Q 24.094 28.088 24.5 27.6 A 12.221 12.221 0 0 1 25.606 28.13 Q 26.697 28.715 28.107 29.676 A 50.125 50.125 0 0 1 29 30.3 L 29.5 31.1 L 29.4 31.6 Q 25.324 34.706 25.486 34.609 A 0.349 0.349 0 0 0 25.5 34.6 A 166.19 166.19 0 0 1 21.172 38.032 A 192.524 192.524 0 0 1 19.5 39.3 A 0.053 0.053 0 0 0 19.546 39.334 Q 19.742 39.4 20.786 39.4 A 33.606 33.606 0 0 0 20.8 39.4 L 24.3 39.3 Q 25.657 38.998 26.446 38.924 A 4.916 4.916 0 0 1 26.9 38.9 Q 30.3 35.2 31.8 33.3 Q 32.7 33.9 36.6 37.5 L 34.2 38.9 L 21.5 48.5 L 20.6 49.4 Q 27.057 48.839 28.785 48.715 A 44.852 44.852 0 0 1 29 48.7 L 31.4 48.7 L 31.4 47.9 Q 30.5 45.8 29.9 43.6 Q 31 43.8 32 44.3 Q 33.8 45.4 37.6 48.3 L 38 50.6 L 37.6 51.2 Q 37.141 51.735 36.039 52.505 A 25.484 25.484 0 0 1 35.3 53 L 33.3 53 L 32.3 51.2 L 32 49.8 Q 27.713 50.872 20.553 52.413 A 877.167 877.167 0 0 1 15.9 53.4 L 15.2 53.4 Z M 13.1 83.6 L 13.1 83.2 A 0.407 0.407 0 0 1 13.204 83.059 Q 13.51 82.758 14.668 82.097 A 39.757 39.757 0 0 1 15.2 81.8 A 73.555 73.555 0 0 0 19.055 79.099 Q 22.931 76.181 25.2 73.5 A 46.388 46.388 0 0 0 26.544 71.242 Q 27.85 68.888 28.4 67.1 A 0.051 0.051 0 0 0 28.367 67.059 Q 28.259 67 27.8 67 A 5.831 5.831 0 0 0 27.156 67.042 Q 26.122 67.16 24.299 67.602 A 58.237 58.237 0 0 0 23.9 67.7 L 20.9 68.4 L 20 68.9 Q 18.392 69.883 17.263 70.067 A 3.358 3.358 0 0 1 17 70.1 L 16.6 70.1 L 16.8 54.8 L 17.9 55.4 Q 18.453 55.492 19.641 55.796 A 67.631 67.631 0 0 1 19.85 55.85 Q 20.884 56.118 22.533 56.65 A 114.599 114.599 0 0 1 23.6 57 L 22.8 58.2 A 7.63 7.63 0 0 0 21.795 60.595 Q 21.5 61.823 21.5 63.3 L 21.8 65.3 A 215.392 215.392 0 0 0 23.477 65.259 Q 26.844 65.163 27.9 65 Q 28.052 63.86 28.088 61.739 A 83.934 83.934 0 0 0 28.1 60.3 Q 28.1 57.62 27.983 55.937 A 23.045 23.045 0 0 0 27.9 55 L 27.7 53.2 Q 31.5 54.2 35.1 55.8 L 33.7 58.4 L 33.8 66.3 L 33.3 67.7 A 24.702 24.702 0 0 1 29.662 73.289 Q 27.79 75.49 25.283 77.567 A 43.616 43.616 0 0 1 24.5 78.2 A 126.979 126.979 0 0 1 19.354 81.03 Q 16.55 82.484 14 83.6 L 13.1 83.6 Z M 48.4 55.5 L 48.8 56 L 48.2 56.6 L 46.9 59.8 L 47.2 65.7 L 53.8 65.5 Q 54.1 63.2 54.2 61 A 331.712 331.712 0 0 1 54.204 59.409 Q 54.219 56.25 54.3 55.6 A 5.419 5.419 0 0 1 54.375 55.273 Q 54.5 54.802 54.658 54.661 A 0.211 0.211 0 0 1 54.8 54.6 Q 57.786 55.595 60.127 56.473 A 94.946 94.946 0 0 1 61.5 57 Q 61.4 57.5 60.3 59.7 L 60.5 67.7 L 60.3 68.4 A 13.971 13.971 0 0 1 58.575 70.969 A 12.52 12.52 0 0 1 57.9 71.7 A 15.201 15.201 0 0 1 56.79 72.11 Q 56.258 72.282 55.786 72.382 A 6.426 6.426 0 0 1 55 72.5 Q 55 71.7 54 68.2 A 253.02 253.02 0 0 0 52.044 68.207 Q 48.265 68.236 46.995 68.388 A 6.971 6.971 0 0 0 46.9 68.4 Q 46.815 68.74 46.802 71.607 A 246.436 246.436 0 0 0 46.8 72.7 Q 46.7 78.9 44.7 82.2 A 4.22 4.22 0 0 1 43.623 83.386 A 5.546 5.546 0 0 1 42.9 83.85 Q 41.964 84.357 41.515 84.225 A 0.495 0.495 0 0 1 41.3 84.1 A 15.195 15.195 0 0 1 41.164 82.743 Q 40.947 79.518 40.909 70.514 A 979.034 979.034 0 0 1 40.9 66.3 Q 41 59.1 41.3 52.4 Q 45 53.7 48.4 55.5 Z M 58.9 22.8 L 67.1 22.2 L 66.7 7.3 Q 58.4 7.4 49.7 7.9 L 49.6 11.1 L 49.7 14.4 A 228.58 228.58 0 0 1 59.331 13.24 A 264.887 264.887 0 0 1 63 12.9 L 64.1 13.1 A 686.871 686.871 0 0 1 64.217 13.734 Q 64.558 15.585 64.595 15.857 A 0.424 0.424 0 0 1 64.6 15.9 L 49.7 16.7 L 49.6 19.8 L 49.7 23 A 3.63 3.63 0 0 0 50.024 23.035 Q 51.5 23.142 57.048 22.889 A 420.711 420.711 0 0 0 58.9 22.8 Z M 21.8 23.8 L 23.6 23.8 Q 23.6 17.292 23.483 13.246 A 129.4 129.4 0 0 0 23.4 11 L 23.4 8.5 L 8 9.1 L 7.8 15.3 L 21.1 14.4 L 22.4 14.4 L 22.4 16.7 L 22 16.8 Q 20.631 17.057 14.356 17.46 A 567.934 567.934 0 0 1 12.1 17.6 A 5.404 5.404 0 0 0 11.773 17.614 Q 10.844 17.675 8 18 L 8 22.8 Q 7.9 24 8 24.4 A 2.071 2.071 0 0 0 8.244 24.435 Q 9.535 24.558 15 24.2 A 14.891 14.891 0 0 0 15.544 24.186 Q 17.088 24.125 21.8 23.8 Z" id="0" vector-effect="non-scaling-stroke"/></g></svg>