<svg width="85.3" height="89.6" viewBox="0 0 85.3 89.6" xmlns="http://www.w3.org/2000/svg"><g id="svgGroup" stroke-linecap="round" fill-rule="evenodd" font-size="9pt" stroke="#000" stroke-width="0.25mm" fill="#000" style="stroke:#000;stroke-width:0.25mm;fill:#000"><path d="M 0.3 89 L 0.1 88.6 Q 0.177 79.413 0.37 73.625 A 218.535 218.535 0 0 1 0.5 70.4 L 0.6 54.1 Q 0.6 39.2 0.3 21.9 A 1184.463 1184.463 0 0 1 0.169 17.294 Q 0.018 11.574 0.002 8.331 A 149.083 149.083 0 0 1 0 7.6 Q 0 6.528 0.029 5.867 A 13.693 13.693 0 0 1 0.05 5.5 Q 0.096 4.855 0.1 4.55 A 4.198 4.198 0 0 0 0.1 4.5 A 46.13 46.13 0 0 1 2.448 5.766 Q 3.85 6.571 5.381 7.562 A 84.663 84.663 0 0 1 6.8 8.5 L 7.8 9.2 L 13.2 8.9 L 18.4 8.5 A 239.305 239.305 0 0 1 19.696 7.282 Q 22.209 4.941 23.131 4.251 A 6.381 6.381 0 0 1 23.2 4.2 A 18.513 18.513 0 0 1 24.475 5.241 Q 25.975 6.569 27.9 8.7 L 28.3 9.6 L 26.7 11.5 Q 24.039 14.078 20.064 19.145 A 187.467 187.467 0 0 0 18.4 21.3 L 15 25.7 L 17.7 28.4 A 73.053 73.053 0 0 1 21.777 33.014 Q 23.691 35.388 25.089 37.616 A 31.986 31.986 0 0 1 27 41.1 Q 27.2 42.7 27.2 43.5 Q 27.2 45.4 26.7 46.9 Q 24.7 52.2 18.9 55.3 L 16.7 56.2 L 16.5 56.1 A 1.181 1.181 0 0 1 16.355 55.912 Q 16.138 55.579 15.815 54.821 A 24.988 24.988 0 0 1 15.6 54.3 Q 15.269 52.396 14.732 51.417 A 3.264 3.264 0 0 0 14.5 51.05 Q 13.907 50.245 12.31 49.548 A 13.88 13.88 0 0 0 11.7 49.3 L 10.7 48.7 Q 11.7 48.4 12.1 48.3 A 37.211 37.211 0 0 0 14.371 47.823 Q 16.688 47.256 18.2 46.5 A 0.255 0.255 0 0 0 18.24 46.415 Q 18.352 46.091 18.6 44.6 Q 18.696 43.541 18.7 41.277 A 111.68 111.68 0 0 0 18.7 41.1 L 18.7 39.4 L 18.1 37.1 A 31.017 31.017 0 0 0 16.861 33.864 Q 15.763 31.391 14.1 28.6 Q 12.9 26.6 12.8 26.3 L 13.4 24.6 A 154.683 154.683 0 0 0 15.444 19.395 Q 16.313 17.052 16.977 14.979 A 66.95 66.95 0 0 0 18.1 11.1 A 54.142 54.142 0 0 0 14.307 11.242 Q 12.316 11.383 10.084 11.661 A 100.936 100.936 0 0 0 8.3 11.9 L 8.1 11.9 Q 8.1 70.4 7.4 82.1 Q 5.189 85.812 3.663 87.84 A 20.734 20.734 0 0 1 2.9 88.8 L 2.1 89.6 L 1.2 89.6 Q 0.7 89.6 0.3 89 Z M 30.2 63.4 L 30 63 Q 29.227 62.313 28.675 61.699 A 11.113 11.113 0 0 1 28.5 61.5 L 27.5 60.4 A 482.817 482.817 0 0 1 29.281 60.322 Q 31.521 60.229 32.687 60.207 A 33.327 33.327 0 0 1 33.3 60.2 L 49.5 59.6 L 54.4 59.4 A 132.161 132.161 0 0 0 56.531 59.381 Q 58.916 59.343 62.072 59.224 A 461.702 461.702 0 0 0 65.1 59.1 L 65.1 52.9 L 58.8 53.1 L 56 53.2 A 1639.328 1639.328 0 0 0 49.502 53.559 Q 42.042 53.986 37.914 54.311 A 144.986 144.986 0 0 0 35.7 54.5 L 33.9 54.5 Q 32.6 52.4 32.4 52.1 L 32 51.5 A 284.622 284.622 0 0 1 33.377 51.422 Q 35.11 51.329 36.02 51.307 A 20.338 20.338 0 0 1 36.5 51.3 L 50.4 50.8 L 59.7 50.5 L 64.9 50.5 L 64.9 44.7 L 60.8 44.7 Q 48.2 45.3 36.3 46.2 L 32.4 46.4 A 0.94 0.94 0 0 1 31.949 46.278 Q 31.799 46.197 31.649 46.061 A 2.543 2.543 0 0 1 31.4 45.8 A 92.44 92.44 0 0 1 30.849 45.14 Q 29.823 43.898 29.621 43.539 A 0.913 0.913 0 0 1 29.6 43.5 A 1515.487 1515.487 0 0 1 41.253 42.989 Q 51.55 42.575 63.8 42.2 Q 65.366 41.046 66.253 40.232 A 11.325 11.325 0 0 0 66.6 39.9 Q 67.289 39.517 67.744 39.252 A 25.605 25.605 0 0 0 68 39.1 Q 68.395 38.863 68.603 38.689 A 1.529 1.529 0 0 0 68.7 38.6 L 76.3 42.4 Q 77.535 42.97 77.597 43.54 A 0.557 0.557 0 0 1 77.6 43.6 A 0.99 0.99 0 0 1 77.436 44.116 Q 77.088 44.684 76.001 45.34 A 10.881 10.881 0 0 1 75.9 45.4 L 74.3 47.1 L 74.5 61.7 Q 71.139 61.513 66.907 61.501 A 207.039 207.039 0 0 0 66.3 61.5 A 240.027 240.027 0 0 0 58.73 61.63 Q 50.906 61.878 40.8 62.6 A 1581.495 1581.495 0 0 0 38.018 62.811 Q 32.902 63.204 31.257 63.373 A 31.187 31.187 0 0 0 31 63.4 L 30.2 63.4 Z M 48.5 34.6 L 48.8 34.6 L 48.7 27.4 Q 42.539 27.4 39.575 27.632 A 34.578 34.578 0 0 0 39.35 27.65 A 153.728 153.728 0 0 0 36.962 27.873 Q 35.893 27.98 34.703 28.112 A 308.079 308.079 0 0 0 32.2 28.4 L 31.6 28.4 A 79.123 79.123 0 0 1 31.019 27.499 Q 29.881 25.706 29.8 25.3 A 208.165 208.165 0 0 1 32.034 25.214 Q 37.653 25.023 52.563 24.663 A 8576.228 8576.228 0 0 1 55.2 24.6 L 59.3 24.6 L 59.5 24.2 Q 62.7 18.9 65.9 11.1 L 66.4 9.4 L 66.6 9.4 Q 70.458 11.372 73.214 13.418 A 30.927 30.927 0 0 1 74.1 14.1 A 0.66 0.66 0 0 1 74.218 14.256 Q 74.402 14.602 74.021 15.074 A 2.102 2.102 0 0 1 74 15.1 Q 73.8 15.4 72 16.7 Q 67.4 20.1 62.1 24.2 L 67.9 24.2 Q 71.302 21.09 72.153 20.53 A 2.436 2.436 0 0 1 72.2 20.5 A 137.577 137.577 0 0 1 75.112 23.119 Q 76.472 24.379 77.644 25.545 A 82.491 82.491 0 0 1 77.8 25.7 A 0.409 0.409 0 0 1 77.722 25.798 Q 77.505 26.014 76.754 26.467 A 21.892 21.892 0 0 1 76.7 26.5 Q 67 26.6 57.6 27 L 57.5 28.4 L 57.6 30.6 L 57.6 34.2 L 64.5 33.9 L 68.3 33.8 L 73.3 33.6 Q 75.452 32.426 78.657 30.2 A 116.893 116.893 0 0 0 78.8 30.1 L 80.4 31.6 A 144.06 144.06 0 0 1 81.369 32.496 Q 82.953 33.975 83.5 34.6 Q 84.317 35.58 84.466 35.893 A 0.279 0.279 0 0 1 84.5 36 A 1.246 1.246 0 0 1 84.362 36.281 Q 84.285 36.4 84.177 36.52 A 2.381 2.381 0 0 1 84.1 36.6 L 61.2 36.9 L 44.5 37.2 Q 36.125 37.681 32.105 38.163 A 59.438 59.438 0 0 0 31.8 38.2 Q 29.4 38.6 28.3 38.6 A 5.142 5.142 0 0 1 27.85 38.08 Q 27.639 37.803 27.428 37.464 A 11.327 11.327 0 0 1 27.1 36.9 A 46.473 46.473 0 0 1 26.723 36.414 Q 25.981 35.444 25.9 35.2 Q 37 35 48.5 34.6 Z M 34.7 66.2 L 36.5 66.8 L 38.4 67.4 A 8.304 8.304 0 0 1 38.628 68.121 Q 38.725 68.489 38.767 68.816 A 3.772 3.772 0 0 1 38.8 69.3 Q 39.9 74.3 43.5 78 A 27.54 27.54 0 0 0 48.827 80.035 A 35.822 35.822 0 0 0 53 80.9 L 55.4 81.1 L 57.3 80.7 A 11.442 11.442 0 0 1 58.421 80.34 Q 59.341 80.1 60.1 80.1 Q 60.4 80.1 61.05 80.15 A 1.284 1.284 0 0 0 61.149 80.154 Q 61.631 80.154 61.967 79.774 A 1.608 1.608 0 0 0 62.1 79.6 A 3.401 3.401 0 0 0 62.325 79.199 Q 62.542 78.751 62.76 78.067 A 16.728 16.728 0 0 0 62.9 77.6 A 23.28 23.28 0 0 0 63.392 73.477 A 21.34 21.34 0 0 0 63.4 72.9 A 10.785 10.785 0 0 1 63.407 72.573 Q 63.432 71.811 63.546 69.759 A 595.117 595.117 0 0 1 63.6 68.8 L 64 69 L 66.3 74 L 67.1 75.7 L 72 79.7 Q 73.6 80.9 74.05 81.5 A 2.251 2.251 0 0 1 74.499 82.813 A 2.787 2.787 0 0 1 74.5 82.9 Q 74.4 84.5 73.3 85.6 Q 69.7 87.2 63.2 87.9 Q 57.7 88.3 51.7 88.3 A 38.221 38.221 0 0 1 48.486 87.941 Q 46.867 87.686 45.476 87.298 A 20.531 20.531 0 0 1 44.5 87 A 10.66 10.66 0 0 1 41.425 85.345 Q 40.119 84.353 38.9 82.9 A 14.653 14.653 0 0 1 36.741 79.426 A 19.925 19.925 0 0 1 35.65 76.3 Q 34.6 72.3 34.6 68.7 Q 34.6 66.962 34.693 66.249 A 4.246 4.246 0 0 1 34.7 66.2 Z M 65.3 0.9 L 67.1 0 L 69.6 2.2 L 72.8 5.2 L 73.3 6 L 73 6.6 A 3.281 3.281 0 0 1 72.644 6.975 Q 72.45 7.151 72.208 7.327 A 7.227 7.227 0 0 1 71.8 7.6 Q 68.503 8.279 56.368 9.522 A 906.535 906.535 0 0 1 55.6 9.6 A 889.787 889.787 0 0 0 51.544 9.944 Q 46.942 10.343 40.612 10.929 A 3708.566 3708.566 0 0 0 34.5 11.5 L 30.9 11.7 Q 30.397 11.7 30.256 11.597 A 0.118 0.118 0 0 1 30.2 11.5 A 1.374 1.374 0 0 1 30.666 11.198 A 1.887 1.887 0 0 1 31 11.1 A 190.299 190.299 0 0 1 32.6 10.681 Q 35.15 10.025 38.6 9.2 Q 52.859 5.326 61.751 2.2 A 137.135 137.135 0 0 0 65.3 0.9 Z M 28.9 74.4 L 29.2 77.5 L 28.5 78.8 A 16.873 16.873 0 0 1 26.701 82.179 A 14.444 14.444 0 0 1 25.3 83.9 Q 24.058 85.273 22.772 85.748 A 3.931 3.931 0 0 1 21.4 86 Q 20.9 86 20.5 85.9 A 6.381 6.381 0 0 1 19.744 85.27 Q 19.378 84.919 19 84.468 A 15.022 15.022 0 0 1 18.4 83.7 A 6.718 6.718 0 0 1 18.245 83.24 Q 18.115 82.8 18.102 82.475 A 1.78 1.78 0 0 1 18.1 82.4 A 0.851 0.851 0 0 1 18.159 82.117 Q 18.342 81.609 19.1 80.7 Q 24.2 74.4 27.1 67.8 Q 27.165 67.089 27.396 66.796 A 0.51 0.51 0 0 1 27.7 66.6 A 0.187 0.187 0 0 1 27.833 66.699 Q 28.104 67.076 28.5 68.9 A 16.452 16.452 0 0 1 28.711 70.296 Q 28.873 71.755 28.896 73.737 A 57.518 57.518 0 0 1 28.9 74.4 Z M 79.8 79.1 L 79 78.4 A 10.554 10.554 0 0 1 77.995 76.883 A 12.559 12.559 0 0 1 77.6 76.1 A 67.72 67.72 0 0 0 71.641 68.192 A 60.372 60.372 0 0 0 70 66.4 L 68.7 65.5 L 70.2 65.5 Q 79.966 67.177 84.575 71.287 A 14.421 14.421 0 0 1 84.7 71.4 L 85.3 72.3 L 85.1 73.8 Q 85.1 75.8 83.9 77.5 Q 82.4 78.7 80.6 79.1 L 79.8 79.1 Z M 55 74.4 L 53.9 75.4 A 33.593 33.593 0 0 1 53.428 75.397 Q 52.166 75.379 51.814 75.26 A 0.3 0.3 0 0 1 51.7 75.2 A 2.348 2.348 0 0 1 51.562 74.914 Q 51.258 74.192 50.7 72.2 A 46.231 46.231 0 0 0 49.594 69.019 Q 48.75 66.863 47.8 65.2 Q 47.477 64.474 47.415 64.008 A 1.574 1.574 0 0 1 47.4 63.8 Q 50.236 64.831 53.663 66.453 A 107.513 107.513 0 0 1 54.8 67 Q 56.8 68.9 56.9 70.8 A 4.71 4.71 0 0 1 55.474 73.965 A 6.539 6.539 0 0 1 55 74.4 Z M 34.3 14.1 L 33.7 12.9 A 29.63 29.63 0 0 1 36.228 13.919 A 39.58 39.58 0 0 1 38.6 15.1 A 32.344 32.344 0 0 1 40.32 16.572 Q 41.136 17.324 41.783 18.045 A 15.85 15.85 0 0 1 42.5 18.9 L 42.6 20.1 A 5.66 5.66 0 0 1 42.302 21.893 A 6.028 6.028 0 0 1 42.3 21.9 Q 41.7 22.9 40.65 23.5 A 4.591 4.591 0 0 1 39.419 23.993 A 4.011 4.011 0 0 1 38.5 24.1 Q 38.06 24.1 37.512 23.885 A 5.071 5.071 0 0 1 37.1 23.7 A 2.839 2.839 0 0 1 36.732 23.143 Q 36.417 22.539 36.15 21.553 A 18.265 18.265 0 0 1 35.9 20.5 Q 35.4 16.9 34.3 14.1 Z M 49.6 21.9 L 49.4 15.9 L 48.5 11.7 L 49.8 12.3 A 174.609 174.609 0 0 1 51.231 13 Q 52.992 13.872 53.898 14.384 A 17.162 17.162 0 0 1 54.1 14.5 Q 55.9 15.9 55.9 18.6 Q 55.9 19.417 55.833 19.9 A 3.383 3.383 0 0 1 55.8 20.1 Q 55.5 21.2 54.35 21.95 Q 53.2 22.7 51.8 22.7 A 6.438 6.438 0 0 1 51.357 22.686 Q 50.932 22.656 50.661 22.566 A 1.235 1.235 0 0 1 50.5 22.5 Q 49.913 22.011 49.613 21.905 A 0.732 0.732 0 0 0 49.6 21.9 Z" id="0" vector-effect="non-scaling-stroke"/></g></svg>