<svg width="91.5" height="87.2" viewBox="0 0 91.5 87.2" xmlns="http://www.w3.org/2000/svg"><g id="svgGroup" stroke-linecap="round" fill-rule="evenodd" font-size="9pt" stroke="#000" stroke-width="0.25mm" fill="#000" style="stroke:#000;stroke-width:0.25mm;fill:#000"><path d="M 42.4 44 L 41.3 42.3 L 40.9 41.6 A 536.354 536.354 0 0 0 40.961 37.166 Q 41 33.213 41 28.4 A 535.587 535.587 0 0 0 40.996 26.383 Q 40.982 22.675 40.912 21.486 A 10.439 10.439 0 0 0 40.9 21.3 L 40.9 18.9 L 16.2 19.9 L 15.4 19.9 L 15.4 20.7 Q 15 23.5 14 26.4 A 19.957 19.957 0 0 1 13.104 27.873 Q 12.032 29.485 10.343 31.51 A 67.93 67.93 0 0 1 10.1 31.8 Q 6.171 35.058 5.089 35.194 A 0.715 0.715 0 0 1 5 35.2 A 1.811 1.811 0 0 1 3.635 34.605 A 2.458 2.458 0 0 1 3.5 34.45 A 5.673 5.673 0 0 1 3.125 33.914 Q 2.749 33.312 2.337 32.407 A 22.835 22.835 0 0 1 2.2 32.1 L 1.7 30 L 2.2 29.2 Q 6.6 23.9 10.3 14.1 L 10.7 12.4 L 11 12.6 Q 13.3 15.3 14.6 17.1 A 3779.216 3779.216 0 0 0 22.228 16.92 Q 34.71 16.61 39.29 16.391 A 77.319 77.319 0 0 0 40.9 16.3 L 40.7 7.8 Q 28.3 8.3 23.4 8.8 L 21.4 8.9 L 20.3 8.8 Q 18 6.8 17 5.8 Q 19.3 5.6 24.6 5.6 Q 48.98 5.005 60.887 4.214 A 274.227 274.227 0 0 0 61.1 4.2 L 67.5 0 Q 70.9 2 74 4.2 L 75.1 5.2 L 75.1 6.7 L 74.3 6.9 A 137.229 137.229 0 0 1 70.308 7.137 Q 67.909 7.247 65.2 7.3 A 1048.952 1048.952 0 0 0 60.112 7.416 Q 50.731 7.655 47.508 7.949 A 26.305 26.305 0 0 0 47 8 Q 48.07 8.611 50.132 9.398 A 62.637 62.637 0 0 0 51.5 9.9 A 0.302 0.302 0 0 1 51.636 10.043 Q 51.691 10.156 51.699 10.34 A 1.465 1.465 0 0 1 51.7 10.4 A 2.154 2.154 0 0 1 51.637 10.931 A 1.826 1.826 0 0 1 51.5 11.3 A 12.67 12.67 0 0 0 50.71 13.012 Q 50.362 13.953 50.233 14.846 A 7.654 7.654 0 0 0 50.2 15.1 L 50.2 16 L 73 15.1 L 74.7 15.1 L 78.4 12.2 L 80 10.9 L 82.9 13.3 Q 88.997 18.61 91.226 21.213 A 19.293 19.293 0 0 1 91.3 21.3 Q 91.456 21.768 91.49 22.054 A 1.235 1.235 0 0 1 91.5 22.2 Q 91.5 22.6 91.1 23.4 L 87 24.1 A 101.212 101.212 0 0 0 80.976 24.934 Q 77.338 25.556 74.3 26.4 Q 73.907 26.4 73.823 26.276 A 0.133 0.133 0 0 1 73.8 26.2 Q 74.35 23.794 75.136 20.773 A 302.981 302.981 0 0 1 75.9 17.9 L 75.9 17.7 L 64.6 18.1 L 50.6 18.7 L 50.4 34.6 L 50.1 35.8 Q 47.23 41.633 44.36 44.38 A 13.276 13.276 0 0 1 43.9 44.8 A 1.867 1.867 0 0 1 43.496 44.679 Q 43.019 44.481 42.4 44 Z M 14.7 80.5 L 14 78.5 L 14 77.9 Q 16.1 77.7 17 77.7 L 22.4 77.6 L 24.4 75.7 Q 29.9 70.8 34.7 65 Q 35.074 64.626 36.499 62.763 A 170.314 170.314 0 0 0 36.7 62.5 Q 37.289 61.42 37.3 61.304 A 0.044 0.044 0 0 0 37.3 61.3 A 378.957 378.957 0 0 0 30.4 61.581 Q 19.375 62.125 4.3 63.4 L 3.1 63.4 Q 2.3 62.6 1.3 60.9 L 0 59.8 Q 2.946 59.407 9.073 59.207 A 257.479 257.479 0 0 1 9.3 59.2 L 39.4 58.4 L 68.3 57.7 L 75.5 57.7 L 81.8 52.3 A 274.509 274.509 0 0 1 84.687 54.281 Q 88.7 57.075 90.8 58.8 A 2.09 2.09 0 0 1 90.945 59.019 Q 91.316 59.67 90.8 60.1 Q 76.231 60.199 46.34 61.084 A 5454.58 5454.58 0 0 0 45.8 61.1 L 44.8 61.3 L 48.6 65.4 Q 42.1 69.6 33 74.9 L 29.5 77.2 Q 48.7 76.7 65.2 75.9 L 60 68.5 L 58.5 66.4 A 0.625 0.625 0 0 1 58.625 66.374 Q 59.238 66.303 61.219 66.916 A 42.928 42.928 0 0 1 62.1 67.2 A 30.306 30.306 0 0 1 64.418 68.008 Q 66.627 68.873 69.35 70.25 Q 73.6 72.4 76.9 74.5 A 6.152 6.152 0 0 1 77.162 74.844 Q 77.579 75.425 78.317 76.615 A 102.725 102.725 0 0 1 78.8 77.4 L 79 80.4 L 78.6 81.9 Q 76.751 85.245 74.127 86.731 A 8.972 8.972 0 0 1 73.4 87.1 L 72.4 87.2 A 4.37 4.37 0 0 1 71.877 87.171 Q 71.612 87.139 71.394 87.072 A 1.778 1.778 0 0 1 71 86.9 Q 70.437 86.408 69.924 85.52 A 10.593 10.593 0 0 1 69.5 84.7 A 74.356 74.356 0 0 0 68.645 82.481 Q 67.725 80.213 66.9 78.7 A 63.499 63.499 0 0 0 64.034 78.89 Q 58.577 79.357 48.05 80.85 Q 34.3 82.8 19.9 85.3 A 34.217 34.217 0 0 1 18.906 85.475 Q 17.83 85.647 17.05 85.688 A 8.723 8.723 0 0 1 16.6 85.7 A 115.628 115.628 0 0 1 15.682 83.27 Q 15.211 81.982 14.716 80.546 A 191.558 191.558 0 0 1 14.7 80.5 Z M 19.9 51.3 L 19.1 50.3 L 17.5 48.4 L 16.4 47.5 L 34.9 47.1 A 729.88 729.88 0 0 0 44.719 46.936 Q 49.758 46.82 55.384 46.633 A 1293.006 1293.006 0 0 0 59.2 46.5 Q 62.8 44 64.6 42.5 L 65.9 41.6 L 67.5 42.5 Q 71.764 45.254 72.635 46.114 A 1.513 1.513 0 0 1 72.8 46.3 A 1.821 1.821 0 0 1 73.194 47.328 A 2.326 2.326 0 0 1 73.2 47.5 A 0.814 0.814 0 0 1 72.725 48.259 Q 72.356 48.456 71.7 48.5 Q 69.397 48.747 64.051 48.858 A 343.908 343.908 0 0 1 61.6 48.9 Q 33.4 50.1 20.5 51.3 L 19.9 51.3 Z M 36.1 35.2 L 36.4 37.6 L 33.2 37.8 L 23.9 38.4 A 484.731 484.731 0 0 1 21.788 38.521 Q 15.406 38.873 14.8 38.7 Q 13.9 37.4 13.8 36.4 Q 18.036 36.124 19.983 36.017 A 147.402 147.402 0 0 1 20.3 36 Q 30.697 35.422 35.718 35.215 A 318.275 318.275 0 0 1 36.1 35.2 Z M 53.8 37.2 L 53.6 36.2 Q 53.6 35.9 53.8 35.4 L 67.9 33.8 Q 71.5 33.3 72.6 33.5 A 3.042 3.042 0 0 1 73.869 33.933 A 4.197 4.197 0 0 1 74.5 34.4 L 74.9 34.8 L 74.9 35.7 L 74.5 36.6 Q 65.596 36.697 54.539 37.168 A 876.232 876.232 0 0 0 53.8 37.2 Z M 35.9 26.2 L 35.9 28.5 A 2.647 2.647 0 0 1 35.976 28.501 Q 36.572 28.519 29.9 28.9 Q 24.3 29 17.5 29.2 Q 16.719 28.341 16.487 27.726 A 1.549 1.549 0 0 1 16.4 27.4 Q 22.272 26.822 34.909 26.245 A 1068.72 1068.72 0 0 1 35.9 26.2 Z M 53.4 27.9 L 53.4 25.8 Q 57.788 25.52 61.304 25.327 A 614.109 614.109 0 0 1 61.8 25.3 L 64.2 25.3 L 68.3 23.6 L 68.9 23.6 Q 69.8 25.7 70.6 27.6 Q 62.2 27.6 56.8 27.7 L 53.4 27.9 Z" id="0" vector-effect="non-scaling-stroke"/></g></svg>