<svg width="94.8" height="88.5" viewBox="0 0 94.8 88.5" xmlns="http://www.w3.org/2000/svg"><g id="svgGroup" stroke-linecap="round" fill-rule="evenodd" font-size="9pt" stroke="#000" stroke-width="0.25mm" fill="#000" style="stroke:#000;stroke-width:0.25mm;fill:#000"><path d="M 50.2 60.1 L 50.3 48.3 A 516.381 516.381 0 0 1 50.333 45.133 Q 50.448 36.646 50.817 34.072 A 4.962 4.962 0 0 1 51 33.2 L 55.1 35 A 48.904 48.904 0 0 0 56.443 35.628 Q 58.32 36.468 59.28 36.654 A 3.023 3.023 0 0 0 59.6 36.7 L 72.1 36 Q 72.7 30.9 73 25.7 Q 68.9 25.7 59.4 26.3 L 58.1 27.4 Q 56.4 28.9 54.4 29.8 L 53.6 30.2 L 53 29.8 A 2.59 2.59 0 0 1 52.694 29.744 Q 52.179 29.616 52.1 29.3 L 51.7 29 A 29402.83 29402.83 0 0 0 51.581 23.044 Q 51.188 3.4 51.1 0.6 Q 51.1 0.156 51.21 0.04 A 0.121 0.121 0 0 1 51.3 0 Q 56 1.7 61.6 4.3 A 0.746 0.746 0 0 1 61.653 4.445 Q 61.7 4.625 61.7 4.9 Q 61.7 5.8 60.9 7.1 L 60.1 8.7 L 59.8 12.1 L 74.1 11.1 L 75.5 11.1 A 258.64 258.64 0 0 0 77.684 9.248 Q 78.536 8.518 79.29 7.856 A 128.152 128.152 0 0 0 80.7 6.6 L 85.4 10.3 Q 86.002 10.988 86.492 11.527 A 57.432 57.432 0 0 0 86.65 11.7 A 5.094 5.094 0 0 1 86.864 11.948 Q 87.164 12.321 87.196 12.548 A 0.373 0.373 0 0 1 87.2 12.6 Q 87.2 12.975 86.275 13.131 A 5.2 5.2 0 0 1 86.15 13.15 Q 85.1 13.3 84 13.35 Q 82.9 13.4 82.3 13.4 L 59.8 14.1 Q 59.8 18.2 59.6 21.5 L 59.6 23.8 A 211.836 211.836 0 0 0 64.048 23.669 Q 66.037 23.591 68.25 23.473 A 420.135 420.135 0 0 0 72.9 23.2 A 2171.984 2171.984 0 0 1 73.748 22.258 Q 76.358 19.362 76.756 18.946 A 2.942 2.942 0 0 1 76.8 18.9 L 76.9 18.9 Q 77.238 18.9 77.79 19.114 A 6.513 6.513 0 0 1 78 19.2 L 81.6 21.3 Q 84.218 23.142 84.956 23.762 A 6.064 6.064 0 0 1 85 23.8 A 2.264 2.264 0 0 1 84.889 24.22 Q 84.559 25.178 83.297 27.648 A 131.452 131.452 0 0 1 82.7 28.8 L 82.7 38 Q 75.885 38.276 72.633 38.383 A 346.897 346.897 0 0 1 72.1 38.4 A 7610.441 7610.441 0 0 0 67.86 38.573 Q 59.481 38.919 58.1 39 Q 57.8 40.8 57.7 47.1 Q 60.7 47 66.1 46.5 L 72.3 45.9 L 72.9 45.6 L 77 41.8 L 78.2 42.7 A 155.373 155.373 0 0 1 79.614 43.921 Q 82.316 46.284 82.864 47.047 A 1.86 1.86 0 0 1 82.9 47.1 A 0.601 0.601 0 0 1 82.582 47.631 Q 82.233 47.848 81.5 47.9 L 57.7 48.9 Q 57.342 51.856 57.465 55.856 A 74.632 74.632 0 0 0 57.5 56.8 L 72.9 56 L 77 51.9 L 77.7 52.3 Q 81.7 55.4 82.5 57.7 L 75.3 57.9 A 1385.407 1385.407 0 0 0 69.575 58.144 Q 62.021 58.482 57.92 58.77 A 165.478 165.478 0 0 0 57.5 58.8 L 57.1 58.8 L 57.1 67.2 L 72.3 66.4 L 73.6 66.4 L 78 62.4 L 82.7 66.2 L 84.1 67.8 L 83.5 68.2 L 82.9 68.7 L 77.3 68.7 A 336.388 336.388 0 0 0 67.16 68.938 Q 62.038 69.139 57.5 69.5 L 56.6 69.5 L 56.6 72.5 L 56.5 74.7 L 56.6 76 A 1.62 1.62 0 0 0 56.883 76.716 Q 57.161 77.123 57.7 77.5 A 7.14 7.14 0 0 0 59.519 78.365 Q 61.414 78.993 64.41 79.199 A 46.698 46.698 0 0 0 67.6 79.3 Q 75.168 78.841 80.807 77.448 A 43.164 43.164 0 0 0 84.1 76.5 Q 86.134 74.829 87.958 71.785 A 33.598 33.598 0 0 0 89.3 69.3 A 25.763 25.763 0 0 1 89.632 68.389 Q 90.403 66.4 90.9 66.4 Q 91.192 66.4 91.105 68.959 A 46.811 46.811 0 0 1 91.1 69.1 A 20.938 20.938 0 0 0 91.551 73.12 A 15.324 15.324 0 0 0 93.2 77.5 Q 94.6 79.3 94.8 81.3 A 4.292 4.292 0 0 1 93.843 83.311 A 6.362 6.362 0 0 1 92.8 84.3 Q 88.9 86.1 81.1 86.9 Q 78 87.1 72.1 87.1 Q 66.503 87.1 63.799 86.907 A 35.903 35.903 0 0 1 63.7 86.9 Q 58.771 86.026 55.296 84.267 A 19.251 19.251 0 0 1 53.6 83.3 A 9.937 9.937 0 0 1 51.779 80.751 Q 51.212 79.636 50.825 78.287 A 16.721 16.721 0 0 1 50.8 78.2 A 22.34 22.34 0 0 1 50.462 76.131 Q 50.1 73.144 50.1 68.4 Q 50.1 64.342 50.159 61.633 A 131.811 131.811 0 0 1 50.2 60.1 Z M 27.7 81 L 31 80.5 L 34.5 79.9 L 34.7 76.7 A 19.283 19.283 0 0 0 34.744 75.988 Q 34.794 74.881 34.799 72.963 A 167.491 167.491 0 0 0 34.8 72.5 A 207.529 207.529 0 0 0 34.794 70.844 Q 34.781 69.232 34.741 68.02 A 58.909 58.909 0 0 0 34.7 67 L 34.5 61.6 L 33.9 45.1 Q 29.775 45.169 24.374 45.521 A 343.227 343.227 0 0 0 19.2 45.9 L 18.9 54.1 A 17.138 17.138 0 0 0 19.462 54.089 Q 20.282 54.062 21.686 53.965 A 166.438 166.438 0 0 0 22.6 53.9 L 31.4 53.3 L 31.7 53.5 Q 31.9 54.3 31.7 54.9 A 2601.285 2601.285 0 0 1 27.881 55.369 Q 22.5 56.025 19.2 56.4 Q 18.9 59.1 18.9 61.4 L 18.9 65 Q 21.733 64.77 23.686 64.658 A 92.727 92.727 0 0 1 24.8 64.6 Q 30.354 64.035 31.566 64.179 A 1.735 1.735 0 0 1 31.7 64.2 A 0.576 0.576 0 0 1 31.866 64.381 Q 31.981 64.567 32.05 64.894 A 3.793 3.793 0 0 1 32.1 65.2 L 32.1 65.8 L 31.7 66 L 20.2 67.2 L 18.9 67.2 L 18.9 81.9 L 18.7 82.7 Q 16.3 86.7 14 88.4 A 2.792 2.792 0 0 1 13.259 88.162 A 3.668 3.668 0 0 1 12.8 87.9 L 12.1 87.3 L 12.8 53.9 L 12.8 40.9 L 13.4 40.9 A 5.019 5.019 0 0 1 13.862 41.052 Q 14.965 41.459 18.095 42.835 A 402.218 402.218 0 0 1 19.6 43.5 A 566.156 566.156 0 0 0 23.275 43.256 Q 27.837 42.938 30.419 42.664 A 71.594 71.594 0 0 0 31 42.6 L 33.6 42.4 Q 35.138 40.7 36.152 39.786 A 12.467 12.467 0 0 1 36.6 39.4 L 37.6 38.4 A 111.898 111.898 0 0 0 39.037 39.343 Q 40.824 40.495 41.814 41.01 A 9.278 9.278 0 0 0 42.2 41.2 L 44.6 42.6 Q 45.2 43 45.2 43.7 A 5.104 5.104 0 0 1 44.051 45.649 A 7.005 7.005 0 0 1 43.1 46.5 L 42.5 47.1 L 42.7 78.9 A 19.72 19.72 0 0 1 40.25 82.799 Q 38.896 84.506 37.064 86.182 A 39.158 39.158 0 0 1 35.3 87.7 Q 34.28 88.256 33.604 88.469 A 4.151 4.151 0 0 1 33.5 88.5 L 33.3 88.5 Q 32.9 88.5 32.7 88 A 0.598 0.598 0 0 1 32.611 87.865 Q 32.428 87.521 32.07 86.428 A 49.68 49.68 0 0 1 31.9 85.9 A 9.892 9.892 0 0 0 30.404 83.31 A 8.373 8.373 0 0 0 28.2 81.4 A 3.406 3.406 0 0 1 28.031 81.339 Q 27.874 81.277 27.774 81.215 A 0.845 0.845 0 0 1 27.75 81.2 A 0.365 0.365 0 0 1 27.713 81.172 Q 27.621 81.092 27.689 81.012 A 0.202 0.202 0 0 1 27.7 81 Z M 1.7 37.1 L 0 34.2 A 156.275 156.275 0 0 1 0.969 34.122 Q 2.553 34 3.1 34 A 166.498 166.498 0 0 0 5.659 33.977 Q 9.238 33.92 15.274 33.729 A 1535.008 1535.008 0 0 0 19.2 33.6 L 18.3 33.2 L 17.7 32.8 L 17.5 32.2 A 51.131 51.131 0 0 0 16.873 28.065 Q 16.465 25.991 15.908 24.271 A 20.246 20.246 0 0 0 14.6 21.1 A 3.233 3.233 0 0 1 14.491 20.887 Q 14.176 20.204 14.565 20.015 A 0.532 0.532 0 0 1 14.6 20 A 1.491 1.491 0 0 1 14.867 20.087 Q 15.428 20.319 16.6 21.1 A 45.968 45.968 0 0 1 18.494 22.219 Q 20.464 23.452 21.63 24.524 A 9.476 9.476 0 0 1 22.3 25.2 Q 23.9 27 23.9 29.3 L 23.7 30.4 L 22.4 32.4 L 20 33.4 A 425.365 425.365 0 0 0 22.541 33.393 Q 27.217 33.365 28.758 33.225 A 9.227 9.227 0 0 0 29 33.2 A 18.667 18.667 0 0 0 29.527 31.957 Q 30.734 28.866 33.172 20.904 A 602.3 602.3 0 0 0 33.6 19.5 L 34.3 17.7 L 31.4 17.9 A 2655.796 2655.796 0 0 0 27.309 18.111 Q 20.615 18.462 18.162 18.634 A 54.066 54.066 0 0 0 17.3 18.7 Q 13.2 19.2 8.7 19.3 A 141.798 141.798 0 0 1 7.853 18.283 Q 6.712 16.898 6.193 16.177 A 9.519 9.519 0 0 1 6 15.9 L 23 15.7 Q 22.923 9.422 22.73 5.078 A 150.43 150.43 0 0 0 22.6 2.6 L 22.6 0.8 L 25.9 1.8 A 191.474 191.474 0 0 1 28.09 2.474 Q 31.335 3.495 32.798 4.117 A 7.906 7.906 0 0 1 33.6 4.5 A 0.247 0.247 0 0 1 33.702 4.605 Q 33.791 4.764 33.799 5.122 A 3.308 3.308 0 0 1 33.8 5.2 A 3.571 3.571 0 0 1 33.756 5.719 Q 33.628 6.58 33.123 8.034 A 29.815 29.815 0 0 1 33.1 8.1 Q 31.7 11.9 31 14.5 L 31 15.5 A 92.921 92.921 0 0 1 33.176 15.289 Q 35.346 15.106 36.897 15.1 A 26.982 26.982 0 0 1 37 15.1 L 38.8 15.1 L 42.9 11.1 L 45.4 13.2 L 47.8 15.3 L 47.8 16.1 A 0.672 0.672 0 0 1 47.788 16.217 Q 47.754 16.403 47.628 16.729 A 7.262 7.262 0 0 1 47.6 16.8 L 47.4 17.1 A 5678.237 5678.237 0 0 0 44.73 17.219 Q 35.925 17.613 34.7 17.7 Q 36.45 18.713 40.404 21.422 A 322.946 322.946 0 0 1 41.1 21.9 L 41.7 22.7 L 34.1 31.8 L 33.3 33.1 A 39.811 39.811 0 0 0 35.48 32.955 Q 36.452 32.865 37.532 32.726 A 79.388 79.388 0 0 0 39.8 32.4 Q 40.8 31.9 44.4 28.6 L 45.2 29.3 Q 48.394 32.212 49.735 34.507 A 10.39 10.39 0 0 1 49.9 34.8 L 49.9 35.2 Q 21.8 35.9 11.7 36.5 L 1.7 37.1 Z" id="0" vector-effect="non-scaling-stroke"/></g></svg>